M48
;DRILL file {KiCad 4.0.7} date 09/10/18 12:17:13
;FORMAT={3:3/ absolute / metric / suppress leading zeros}
FMAT,2
METRIC,TZ
T1C0.200
T2C0.254
T3C0.500
T4C0.813
T5C1.000
T6C3.200
T7C4.300
T8C1.019
%
G90
G05
M71
T1
X80050Y-72500
X80757Y-71793
X80757Y-73207
X81464Y-71086
X81464Y-72500
X81464Y-73914
X82172Y-70379
X82172Y-71793
X82172Y-73207
X82172Y-74621
X82879Y-69672
X82879Y-71086
X82879Y-72500
X82879Y-73914
X82879Y-75328
X83586Y-68964
X83586Y-70379
X83586Y-71793
X83586Y-73207
X83586Y-74621
X83586Y-76036
X84293Y-68257
X84293Y-69672
X84293Y-71086
X84293Y-72500
X84293Y-73914
X84293Y-75328
X84293Y-76743
X85000Y-67550
X85000Y-68964
X85000Y-70379
X85000Y-71793
X85000Y-73207
X85000Y-74621
X85000Y-76036
X85000Y-77450
X85707Y-68257
X85707Y-69672
X85707Y-71086
X85707Y-72500
X85707Y-73914
X85707Y-75328
X85707Y-76743
X86414Y-68964
X86414Y-70379
X86414Y-71793
X86414Y-73207
X86414Y-74621
X86414Y-76036
X87121Y-69672
X87121Y-71086
X87121Y-72500
X87121Y-73914
X87121Y-75328
X87828Y-70379
X87828Y-71793
X87828Y-73207
X87828Y-74621
X88536Y-71086
X88536Y-72500
X88536Y-73914
X89243Y-71793
X89243Y-73207
X89950Y-72500
T2
X51511Y-61489
X51989Y-61011
X52250Y-81000
X52250Y-82000
X52250Y-83000
X52250Y-84000
X53511Y-59989
X53989Y-59511
X54750Y-84750
X55261Y-58489
X55739Y-58011
X55750Y-84750
X57011Y-56989
X57489Y-56511
X58761Y-55489
X59239Y-55011
X60500Y-62500
X60500Y-63750
X60500Y-65250
X60500Y-66750
X60500Y-68250
X60500Y-69750
X63750Y-56250
X63750Y-57750
X63750Y-59250
X63750Y-60750
X63750Y-62664
X63750Y-63339
X63750Y-64163
X63750Y-64838
X63750Y-65664
X63750Y-66339
X63750Y-67164
X63750Y-67839
X63750Y-68664
X63750Y-69339
X64000Y-70750
X64000Y-72500
X64000Y-74250
X64000Y-85750
X64000Y-87250
X65000Y-52500
X65000Y-56250
X65000Y-72500
X65000Y-88750
X65000Y-92500
X66000Y-70750
X66000Y-72500
X66000Y-74250
X66000Y-85750
X66000Y-87250
X71750Y-71750
X71750Y-73250
X72750Y-70250
X73500Y-70250
X74250Y-70250
X74250Y-92250
X75250Y-61250
X75250Y-70500
X75250Y-74000
X77500Y-69750
X77939Y-75689
X78500Y-90250
X80750Y-62250
X81500Y-58250
X81500Y-81000
X81750Y-64250
X81750Y-94750
X81811Y-79561
X82750Y-83500
X83000Y-64250
X83250Y-58250
X83500Y-95000
X84250Y-86000
X84500Y-58000
X84750Y-47750
X85250Y-49500
X85250Y-53000
X85500Y-58000
X85750Y-86000
X86202Y-80452
X86750Y-58000
X87250Y-80500
X87750Y-58000
X87750Y-65000
X88750Y-44500
X88750Y-106750
X89604Y-78146
X89957Y-67207
X90250Y-54500
X90664Y-77086
X90750Y-100000
X91000Y-68250
X91250Y-48500
X92500Y-100000
X93250Y-70500
X93500Y-74250
X93750Y-54500
X94500Y-49500
X95000Y-100000
X95250Y-51250
X95500Y-44500
X98500Y-71750
X98500Y-73250
X103750Y-83500
X103750Y-86500
X103750Y-89500
X103750Y-92500
X104000Y-53500
X104000Y-56500
X104000Y-59500
X104000Y-62500
T3
X52600Y-40000
X52600Y-105000
X53303Y-38303
X53303Y-41697
X53303Y-103303
X53303Y-106697
X54250Y-80000
X55000Y-37600
X55000Y-42400
X55000Y-102600
X55000Y-107400
X56697Y-38303
X56697Y-41697
X56697Y-103303
X56697Y-106697
X56750Y-85750
X57400Y-40000
X57400Y-105000
X75500Y-96500
X79000Y-100500
X89750Y-103500
X102600Y-40000
X102600Y-105000
X103303Y-38303
X103303Y-41697
X103303Y-103303
X103303Y-106697
X105000Y-37600
X105000Y-42400
X105000Y-102600
X105000Y-107400
X106697Y-38303
X106697Y-41697
X106697Y-103303
X106697Y-106697
X107400Y-40000
X107400Y-105000
T4
X75000Y-102500
X75000Y-105040
X78750Y-102500
X78750Y-105040
X82500Y-102500
X82500Y-105040
X101250Y-71210
X101250Y-73750
X105000Y-71250
X105000Y-73790
T5
X74880Y-40000
X76750Y-49670
X76750Y-52210
X76750Y-54750
X77420Y-40000
X79960Y-40000
X81750Y-52210
X81750Y-54750
X82500Y-40000
X87500Y-40000
X90040Y-40000
X92580Y-40000
X95120Y-40000
T6
X55000Y-40000
X55000Y-105000
X105000Y-40000
X105000Y-105000
T7
X65000Y-45500
X65000Y-99500
T8
X67670Y-52437
X67670Y-92563
T0
M30
