G04 #@! TF.FileFunction,Soldermask,Top*
%FSLAX46Y46*%
G04 Gerber Fmt 4.6, Leading zero omitted, Abs format (unit mm)*
G04 Created by KiCad (PCBNEW 4.0.7) date 09/10/18 12:16:13*
%MOMM*%
%LPD*%
G01*
G04 APERTURE LIST*
%ADD10C,0.100000*%
%ADD11R,2.268220X0.279400*%
%ADD12R,0.429260X2.540000*%
%ADD13R,0.429260X4.699000*%
%ADD14C,1.018540*%
%ADD15R,1.250000X1.000000*%
%ADD16R,0.750000X0.800000*%
%ADD17R,0.800000X0.750000*%
%ADD18R,1.000000X1.250000*%
%ADD19R,0.800000X0.800000*%
%ADD20R,1.300000X0.700000*%
%ADD21C,6.400000*%
%ADD22C,0.600000*%
%ADD23C,8.600000*%
%ADD24R,1.700000X1.700000*%
%ADD25O,1.700000X1.700000*%
%ADD26R,1.120000X2.440000*%
%ADD27C,1.400000*%
%ADD28R,0.500000X0.900000*%
%ADD29R,0.900000X0.500000*%
G04 APERTURE END LIST*
D10*
D11*
X62132340Y-55250860D03*
X67867660Y-55250860D03*
X62132340Y-55751240D03*
X67867660Y-55751240D03*
X62132340Y-56251620D03*
X67867660Y-56251620D03*
X62132340Y-56752000D03*
X67867660Y-56752000D03*
X62132340Y-57252380D03*
X67867660Y-57252380D03*
X62132340Y-57750220D03*
X67867660Y-57750220D03*
X62132340Y-58250600D03*
X67867660Y-58250600D03*
X62132340Y-58750980D03*
X67867660Y-58750980D03*
X62132340Y-59251360D03*
X67867660Y-59251360D03*
X62132340Y-59751740D03*
X67867660Y-59751740D03*
X62132340Y-60252120D03*
X67867660Y-60252120D03*
X62132340Y-60752500D03*
X67867660Y-60752500D03*
X62132340Y-61250340D03*
X67867660Y-61250340D03*
X62132340Y-61750720D03*
X67867660Y-61750720D03*
X62132340Y-62251100D03*
X67867660Y-62251100D03*
X62132340Y-62751480D03*
X67867660Y-62751480D03*
X62132340Y-63251860D03*
X67867660Y-63251860D03*
X62132340Y-63752240D03*
X67867660Y-63752240D03*
X62132340Y-64250080D03*
X67867660Y-64250080D03*
X62132340Y-64750460D03*
X67867660Y-64750460D03*
X62132340Y-65250840D03*
X67867660Y-65250840D03*
X62132340Y-65751220D03*
X67867660Y-65751220D03*
X62132340Y-66251600D03*
X67867660Y-66251600D03*
X62132340Y-66751980D03*
X67867660Y-66751980D03*
X62132340Y-67252360D03*
X67867660Y-67252360D03*
X62132340Y-67750200D03*
X67867660Y-67750200D03*
X62132340Y-68250580D03*
X67867660Y-68250580D03*
X62132340Y-68750960D03*
X67867660Y-68750960D03*
X62132340Y-69251340D03*
X67867660Y-69251340D03*
X62132340Y-69751720D03*
X67867660Y-69751720D03*
X62132340Y-75248280D03*
X67867660Y-75248280D03*
X62132340Y-75748660D03*
X67867660Y-75748660D03*
X62132340Y-76249040D03*
X67867660Y-76249040D03*
X62132340Y-76749420D03*
X67867660Y-76749420D03*
X62132340Y-77249800D03*
X67867660Y-77249800D03*
X62132340Y-77747640D03*
X67867660Y-77747640D03*
X62132340Y-78248020D03*
X67867660Y-78248020D03*
X62132340Y-78748400D03*
X67867660Y-78748400D03*
X62132340Y-79248780D03*
X67867660Y-79248780D03*
X62132340Y-79749160D03*
X67867660Y-79749160D03*
X62132340Y-80249540D03*
X67867660Y-80249540D03*
X62132340Y-80749920D03*
X67867660Y-80749920D03*
X62132340Y-81247760D03*
X67867660Y-81247760D03*
X62132340Y-81748140D03*
X67867660Y-81748140D03*
X62132340Y-82248520D03*
X67867660Y-82248520D03*
X62132340Y-82748900D03*
X67867660Y-82748900D03*
X62132340Y-83249280D03*
X67867660Y-83249280D03*
X62132340Y-83749660D03*
X67867660Y-83749660D03*
X62132340Y-84247500D03*
X67867660Y-84247500D03*
X62132340Y-84747880D03*
X67867660Y-84747880D03*
X62132340Y-85248260D03*
X67867660Y-85248260D03*
X62132340Y-85748640D03*
X67867660Y-85748640D03*
X62132340Y-86249020D03*
X67867660Y-86249020D03*
X62132340Y-86749400D03*
X67867660Y-86749400D03*
X62132340Y-87249780D03*
X67867660Y-87249780D03*
X62132340Y-87747620D03*
X67867660Y-87747620D03*
X62132340Y-88248000D03*
X67867660Y-88248000D03*
X62132340Y-88748380D03*
X67867660Y-88748380D03*
X62132340Y-89248760D03*
X67867660Y-89248760D03*
X62132340Y-89749140D03*
X67867660Y-89749140D03*
D12*
X65000000Y-54435520D03*
D13*
X65000000Y-59325020D03*
X65000000Y-65675020D03*
D12*
X65000000Y-70567060D03*
X65000000Y-74432940D03*
D13*
X65000000Y-79324980D03*
X65000000Y-85674980D03*
D12*
X65000000Y-90564480D03*
D14*
X67669540Y-52436540D03*
X67669540Y-92563460D03*
D15*
X85000000Y-61000000D03*
X85000000Y-59000000D03*
D16*
X83250000Y-60750000D03*
X83250000Y-59250000D03*
D17*
X74250000Y-71750000D03*
X72750000Y-71750000D03*
X74250000Y-73250000D03*
X72750000Y-73250000D03*
X96000000Y-71750000D03*
X97500000Y-71750000D03*
X96000000Y-73250000D03*
X97500000Y-73250000D03*
D16*
X85750000Y-83500000D03*
X85750000Y-85000000D03*
X84250000Y-83500000D03*
X84250000Y-85000000D03*
X81500000Y-60750000D03*
X81500000Y-59250000D03*
D18*
X55250000Y-83500000D03*
X53250000Y-83500000D03*
X55250000Y-81500000D03*
X53250000Y-81500000D03*
D19*
X83500000Y-92200000D03*
X83500000Y-93800000D03*
D20*
X87250000Y-59050000D03*
X87250000Y-60950000D03*
D21*
X55000000Y-40000000D03*
D22*
X57400000Y-40000000D03*
X56697056Y-41697056D03*
X55000000Y-42400000D03*
X53302944Y-41697056D03*
X52600000Y-40000000D03*
X53302944Y-38302944D03*
X55000000Y-37600000D03*
X56697056Y-38302944D03*
D21*
X55000000Y-105000000D03*
D22*
X57400000Y-105000000D03*
X56697056Y-106697056D03*
X55000000Y-107400000D03*
X53302944Y-106697056D03*
X52600000Y-105000000D03*
X53302944Y-103302944D03*
X55000000Y-102600000D03*
X56697056Y-103302944D03*
D21*
X105000000Y-105000000D03*
D22*
X107400000Y-105000000D03*
X106697056Y-106697056D03*
X105000000Y-107400000D03*
X103302944Y-106697056D03*
X102600000Y-105000000D03*
X103302944Y-103302944D03*
X105000000Y-102600000D03*
X106697056Y-103302944D03*
D21*
X105000000Y-40000000D03*
D22*
X107400000Y-40000000D03*
X106697056Y-41697056D03*
X105000000Y-42400000D03*
X103302944Y-41697056D03*
X102600000Y-40000000D03*
X103302944Y-38302944D03*
X105000000Y-37600000D03*
X106697056Y-38302944D03*
D23*
X65000000Y-99500000D03*
X65000000Y-45500000D03*
D24*
X76750000Y-49670000D03*
D25*
X76750000Y-52210000D03*
X76750000Y-54750000D03*
D24*
X81750000Y-54750000D03*
D25*
X81750000Y-52210000D03*
D26*
X95040000Y-98195000D03*
X89960000Y-106805000D03*
X92500000Y-98195000D03*
X92500000Y-106805000D03*
X89960000Y-98195000D03*
X95040000Y-106805000D03*
D24*
X87500000Y-40000000D03*
D25*
X90040000Y-40000000D03*
X92580000Y-40000000D03*
X95120000Y-40000000D03*
D24*
X74880000Y-40000000D03*
D25*
X77420000Y-40000000D03*
X79960000Y-40000000D03*
X82500000Y-40000000D03*
D27*
X105000000Y-73790000D03*
X105000000Y-71250000D03*
X101250000Y-73750000D03*
X101250000Y-71210000D03*
X78750000Y-105040000D03*
X78750000Y-102500000D03*
X82500000Y-105040000D03*
X82500000Y-102500000D03*
D28*
X71750000Y-59250000D03*
X73250000Y-59250000D03*
X73250000Y-60750000D03*
X71750000Y-60750000D03*
X71750000Y-84250000D03*
X73250000Y-84250000D03*
D29*
X81750000Y-93750000D03*
X81750000Y-92250000D03*
D27*
X75000000Y-105040000D03*
X75000000Y-102500000D03*
M02*
