G04 #@! TF.FileFunction,Soldermask,Bot*
%FSLAX46Y46*%
G04 Gerber Fmt 4.6, Leading zero omitted, Abs format (unit mm)*
G04 Created by KiCad (PCBNEW 4.0.7) date 09/10/18 12:16:13*
%MOMM*%
%LPD*%
G01*
G04 APERTURE LIST*
%ADD10C,0.100000*%
%ADD11R,0.600000X1.550000*%
%ADD12C,1.018540*%
%ADD13R,0.750000X0.800000*%
%ADD14R,0.800000X0.750000*%
%ADD15C,6.400000*%
%ADD16C,0.600000*%
%ADD17C,8.600000*%
%ADD18R,1.700000X1.700000*%
%ADD19O,1.700000X1.700000*%
%ADD20R,0.500000X0.900000*%
%ADD21R,0.900000X0.500000*%
%ADD22C,1.400000*%
%ADD23R,0.650000X1.560000*%
%ADD24R,1.900000X0.600000*%
%ADD25R,2.800000X2.100000*%
G04 APERTURE END LIST*
D10*
D11*
X93905000Y-52200000D03*
X92635000Y-52200000D03*
X91365000Y-52200000D03*
X90095000Y-52200000D03*
X90095000Y-46800000D03*
X91365000Y-46800000D03*
X92635000Y-46800000D03*
X93905000Y-46800000D03*
D12*
X67669540Y-52436540D03*
X67669540Y-92563460D03*
D10*
G36*
X83196878Y-79818555D02*
X82984746Y-79606423D01*
X84045406Y-78545763D01*
X84257538Y-78757895D01*
X83196878Y-79818555D01*
X83196878Y-79818555D01*
G37*
G36*
X82843324Y-79465002D02*
X82631192Y-79252870D01*
X83691852Y-78192210D01*
X83903984Y-78404342D01*
X82843324Y-79465002D01*
X82843324Y-79465002D01*
G37*
G36*
X82489771Y-79111448D02*
X82277639Y-78899316D01*
X83338299Y-77838656D01*
X83550431Y-78050788D01*
X82489771Y-79111448D01*
X82489771Y-79111448D01*
G37*
G36*
X82136218Y-78757895D02*
X81924086Y-78545763D01*
X82984746Y-77485103D01*
X83196878Y-77697235D01*
X82136218Y-78757895D01*
X82136218Y-78757895D01*
G37*
G36*
X81782664Y-78404342D02*
X81570532Y-78192210D01*
X82631192Y-77131550D01*
X82843324Y-77343682D01*
X81782664Y-78404342D01*
X81782664Y-78404342D01*
G37*
G36*
X81429111Y-78050788D02*
X81216979Y-77838656D01*
X82277639Y-76777996D01*
X82489771Y-76990128D01*
X81429111Y-78050788D01*
X81429111Y-78050788D01*
G37*
G36*
X81075557Y-77697235D02*
X80863425Y-77485103D01*
X81924085Y-76424443D01*
X82136217Y-76636575D01*
X81075557Y-77697235D01*
X81075557Y-77697235D01*
G37*
G36*
X80722004Y-77343681D02*
X80509872Y-77131549D01*
X81570532Y-76070889D01*
X81782664Y-76283021D01*
X80722004Y-77343681D01*
X80722004Y-77343681D01*
G37*
G36*
X80368451Y-76990128D02*
X80156319Y-76777996D01*
X81216979Y-75717336D01*
X81429111Y-75929468D01*
X80368451Y-76990128D01*
X80368451Y-76990128D01*
G37*
G36*
X80014897Y-76636575D02*
X79802765Y-76424443D01*
X80863425Y-75363783D01*
X81075557Y-75575915D01*
X80014897Y-76636575D01*
X80014897Y-76636575D01*
G37*
G36*
X79661344Y-76283021D02*
X79449212Y-76070889D01*
X80509872Y-75010229D01*
X80722004Y-75222361D01*
X79661344Y-76283021D01*
X79661344Y-76283021D01*
G37*
G36*
X79307790Y-75929468D02*
X79095658Y-75717336D01*
X80156318Y-74656676D01*
X80368450Y-74868808D01*
X79307790Y-75929468D01*
X79307790Y-75929468D01*
G37*
G36*
X78954237Y-75575914D02*
X78742105Y-75363782D01*
X79802765Y-74303122D01*
X80014897Y-74515254D01*
X78954237Y-75575914D01*
X78954237Y-75575914D01*
G37*
G36*
X78600684Y-75222361D02*
X78388552Y-75010229D01*
X79449212Y-73949569D01*
X79661344Y-74161701D01*
X78600684Y-75222361D01*
X78600684Y-75222361D01*
G37*
G36*
X78247130Y-74868808D02*
X78034998Y-74656676D01*
X79095658Y-73596016D01*
X79307790Y-73808148D01*
X78247130Y-74868808D01*
X78247130Y-74868808D01*
G37*
G36*
X77893577Y-74515254D02*
X77681445Y-74303122D01*
X78742105Y-73242462D01*
X78954237Y-73454594D01*
X77893577Y-74515254D01*
X77893577Y-74515254D01*
G37*
G36*
X77681445Y-70696878D02*
X77893577Y-70484746D01*
X78954237Y-71545406D01*
X78742105Y-71757538D01*
X77681445Y-70696878D01*
X77681445Y-70696878D01*
G37*
G36*
X78034998Y-70343324D02*
X78247130Y-70131192D01*
X79307790Y-71191852D01*
X79095658Y-71403984D01*
X78034998Y-70343324D01*
X78034998Y-70343324D01*
G37*
G36*
X78388552Y-69989771D02*
X78600684Y-69777639D01*
X79661344Y-70838299D01*
X79449212Y-71050431D01*
X78388552Y-69989771D01*
X78388552Y-69989771D01*
G37*
G36*
X78742105Y-69636218D02*
X78954237Y-69424086D01*
X80014897Y-70484746D01*
X79802765Y-70696878D01*
X78742105Y-69636218D01*
X78742105Y-69636218D01*
G37*
G36*
X79095658Y-69282664D02*
X79307790Y-69070532D01*
X80368450Y-70131192D01*
X80156318Y-70343324D01*
X79095658Y-69282664D01*
X79095658Y-69282664D01*
G37*
G36*
X79449212Y-68929111D02*
X79661344Y-68716979D01*
X80722004Y-69777639D01*
X80509872Y-69989771D01*
X79449212Y-68929111D01*
X79449212Y-68929111D01*
G37*
G36*
X79802765Y-68575557D02*
X80014897Y-68363425D01*
X81075557Y-69424085D01*
X80863425Y-69636217D01*
X79802765Y-68575557D01*
X79802765Y-68575557D01*
G37*
G36*
X80156319Y-68222004D02*
X80368451Y-68009872D01*
X81429111Y-69070532D01*
X81216979Y-69282664D01*
X80156319Y-68222004D01*
X80156319Y-68222004D01*
G37*
G36*
X80509872Y-67868451D02*
X80722004Y-67656319D01*
X81782664Y-68716979D01*
X81570532Y-68929111D01*
X80509872Y-67868451D01*
X80509872Y-67868451D01*
G37*
G36*
X80863425Y-67514897D02*
X81075557Y-67302765D01*
X82136217Y-68363425D01*
X81924085Y-68575557D01*
X80863425Y-67514897D01*
X80863425Y-67514897D01*
G37*
G36*
X81216979Y-67161344D02*
X81429111Y-66949212D01*
X82489771Y-68009872D01*
X82277639Y-68222004D01*
X81216979Y-67161344D01*
X81216979Y-67161344D01*
G37*
G36*
X81570532Y-66807790D02*
X81782664Y-66595658D01*
X82843324Y-67656318D01*
X82631192Y-67868450D01*
X81570532Y-66807790D01*
X81570532Y-66807790D01*
G37*
G36*
X81924086Y-66454237D02*
X82136218Y-66242105D01*
X83196878Y-67302765D01*
X82984746Y-67514897D01*
X81924086Y-66454237D01*
X81924086Y-66454237D01*
G37*
G36*
X82277639Y-66100684D02*
X82489771Y-65888552D01*
X83550431Y-66949212D01*
X83338299Y-67161344D01*
X82277639Y-66100684D01*
X82277639Y-66100684D01*
G37*
G36*
X82631192Y-65747130D02*
X82843324Y-65534998D01*
X83903984Y-66595658D01*
X83691852Y-66807790D01*
X82631192Y-65747130D01*
X82631192Y-65747130D01*
G37*
G36*
X82984746Y-65393577D02*
X83196878Y-65181445D01*
X84257538Y-66242105D01*
X84045406Y-66454237D01*
X82984746Y-65393577D01*
X82984746Y-65393577D01*
G37*
G36*
X85954594Y-66454237D02*
X85742462Y-66242105D01*
X86803122Y-65181445D01*
X87015254Y-65393577D01*
X85954594Y-66454237D01*
X85954594Y-66454237D01*
G37*
G36*
X86308148Y-66807790D02*
X86096016Y-66595658D01*
X87156676Y-65534998D01*
X87368808Y-65747130D01*
X86308148Y-66807790D01*
X86308148Y-66807790D01*
G37*
G36*
X86661701Y-67161344D02*
X86449569Y-66949212D01*
X87510229Y-65888552D01*
X87722361Y-66100684D01*
X86661701Y-67161344D01*
X86661701Y-67161344D01*
G37*
G36*
X87015254Y-67514897D02*
X86803122Y-67302765D01*
X87863782Y-66242105D01*
X88075914Y-66454237D01*
X87015254Y-67514897D01*
X87015254Y-67514897D01*
G37*
G36*
X87368808Y-67868450D02*
X87156676Y-67656318D01*
X88217336Y-66595658D01*
X88429468Y-66807790D01*
X87368808Y-67868450D01*
X87368808Y-67868450D01*
G37*
G36*
X87722361Y-68222004D02*
X87510229Y-68009872D01*
X88570889Y-66949212D01*
X88783021Y-67161344D01*
X87722361Y-68222004D01*
X87722361Y-68222004D01*
G37*
G36*
X88075915Y-68575557D02*
X87863783Y-68363425D01*
X88924443Y-67302765D01*
X89136575Y-67514897D01*
X88075915Y-68575557D01*
X88075915Y-68575557D01*
G37*
G36*
X88429468Y-68929111D02*
X88217336Y-68716979D01*
X89277996Y-67656319D01*
X89490128Y-67868451D01*
X88429468Y-68929111D01*
X88429468Y-68929111D01*
G37*
G36*
X88783021Y-69282664D02*
X88570889Y-69070532D01*
X89631549Y-68009872D01*
X89843681Y-68222004D01*
X88783021Y-69282664D01*
X88783021Y-69282664D01*
G37*
G36*
X89136575Y-69636217D02*
X88924443Y-69424085D01*
X89985103Y-68363425D01*
X90197235Y-68575557D01*
X89136575Y-69636217D01*
X89136575Y-69636217D01*
G37*
G36*
X89490128Y-69989771D02*
X89277996Y-69777639D01*
X90338656Y-68716979D01*
X90550788Y-68929111D01*
X89490128Y-69989771D01*
X89490128Y-69989771D01*
G37*
G36*
X89843682Y-70343324D02*
X89631550Y-70131192D01*
X90692210Y-69070532D01*
X90904342Y-69282664D01*
X89843682Y-70343324D01*
X89843682Y-70343324D01*
G37*
G36*
X90197235Y-70696878D02*
X89985103Y-70484746D01*
X91045763Y-69424086D01*
X91257895Y-69636218D01*
X90197235Y-70696878D01*
X90197235Y-70696878D01*
G37*
G36*
X90550788Y-71050431D02*
X90338656Y-70838299D01*
X91399316Y-69777639D01*
X91611448Y-69989771D01*
X90550788Y-71050431D01*
X90550788Y-71050431D01*
G37*
G36*
X90904342Y-71403984D02*
X90692210Y-71191852D01*
X91752870Y-70131192D01*
X91965002Y-70343324D01*
X90904342Y-71403984D01*
X90904342Y-71403984D01*
G37*
G36*
X91257895Y-71757538D02*
X91045763Y-71545406D01*
X92106423Y-70484746D01*
X92318555Y-70696878D01*
X91257895Y-71757538D01*
X91257895Y-71757538D01*
G37*
G36*
X91045763Y-73454594D02*
X91257895Y-73242462D01*
X92318555Y-74303122D01*
X92106423Y-74515254D01*
X91045763Y-73454594D01*
X91045763Y-73454594D01*
G37*
G36*
X90692210Y-73808148D02*
X90904342Y-73596016D01*
X91965002Y-74656676D01*
X91752870Y-74868808D01*
X90692210Y-73808148D01*
X90692210Y-73808148D01*
G37*
G36*
X90338656Y-74161701D02*
X90550788Y-73949569D01*
X91611448Y-75010229D01*
X91399316Y-75222361D01*
X90338656Y-74161701D01*
X90338656Y-74161701D01*
G37*
G36*
X89985103Y-74515254D02*
X90197235Y-74303122D01*
X91257895Y-75363782D01*
X91045763Y-75575914D01*
X89985103Y-74515254D01*
X89985103Y-74515254D01*
G37*
G36*
X89631550Y-74868808D02*
X89843682Y-74656676D01*
X90904342Y-75717336D01*
X90692210Y-75929468D01*
X89631550Y-74868808D01*
X89631550Y-74868808D01*
G37*
G36*
X89277996Y-75222361D02*
X89490128Y-75010229D01*
X90550788Y-76070889D01*
X90338656Y-76283021D01*
X89277996Y-75222361D01*
X89277996Y-75222361D01*
G37*
G36*
X88924443Y-75575915D02*
X89136575Y-75363783D01*
X90197235Y-76424443D01*
X89985103Y-76636575D01*
X88924443Y-75575915D01*
X88924443Y-75575915D01*
G37*
G36*
X88570889Y-75929468D02*
X88783021Y-75717336D01*
X89843681Y-76777996D01*
X89631549Y-76990128D01*
X88570889Y-75929468D01*
X88570889Y-75929468D01*
G37*
G36*
X88217336Y-76283021D02*
X88429468Y-76070889D01*
X89490128Y-77131549D01*
X89277996Y-77343681D01*
X88217336Y-76283021D01*
X88217336Y-76283021D01*
G37*
G36*
X87863783Y-76636575D02*
X88075915Y-76424443D01*
X89136575Y-77485103D01*
X88924443Y-77697235D01*
X87863783Y-76636575D01*
X87863783Y-76636575D01*
G37*
G36*
X87510229Y-76990128D02*
X87722361Y-76777996D01*
X88783021Y-77838656D01*
X88570889Y-78050788D01*
X87510229Y-76990128D01*
X87510229Y-76990128D01*
G37*
G36*
X87156676Y-77343682D02*
X87368808Y-77131550D01*
X88429468Y-78192210D01*
X88217336Y-78404342D01*
X87156676Y-77343682D01*
X87156676Y-77343682D01*
G37*
G36*
X86803122Y-77697235D02*
X87015254Y-77485103D01*
X88075914Y-78545763D01*
X87863782Y-78757895D01*
X86803122Y-77697235D01*
X86803122Y-77697235D01*
G37*
G36*
X86449569Y-78050788D02*
X86661701Y-77838656D01*
X87722361Y-78899316D01*
X87510229Y-79111448D01*
X86449569Y-78050788D01*
X86449569Y-78050788D01*
G37*
G36*
X86096016Y-78404342D02*
X86308148Y-78192210D01*
X87368808Y-79252870D01*
X87156676Y-79465002D01*
X86096016Y-78404342D01*
X86096016Y-78404342D01*
G37*
G36*
X85742462Y-78757895D02*
X85954594Y-78545763D01*
X87015254Y-79606423D01*
X86803122Y-79818555D01*
X85742462Y-78757895D01*
X85742462Y-78757895D01*
G37*
G36*
X85000000Y-69388730D02*
X88111270Y-72500000D01*
X85000000Y-75611270D01*
X81888730Y-72500000D01*
X85000000Y-69388730D01*
X85000000Y-69388730D01*
G37*
D13*
X89750000Y-100750000D03*
X89750000Y-102250000D03*
D14*
X91250000Y-54500000D03*
X92750000Y-54500000D03*
X93000000Y-44500000D03*
X94500000Y-44500000D03*
D13*
X75250000Y-93750000D03*
X75250000Y-92250000D03*
D14*
X91250000Y-44500000D03*
X89750000Y-44500000D03*
D15*
X55000000Y-40000000D03*
D16*
X57400000Y-40000000D03*
X56697056Y-41697056D03*
X55000000Y-42400000D03*
X53302944Y-41697056D03*
X52600000Y-40000000D03*
X53302944Y-38302944D03*
X55000000Y-37600000D03*
X56697056Y-38302944D03*
D15*
X55000000Y-105000000D03*
D16*
X57400000Y-105000000D03*
X56697056Y-106697056D03*
X55000000Y-107400000D03*
X53302944Y-106697056D03*
X52600000Y-105000000D03*
X53302944Y-103302944D03*
X55000000Y-102600000D03*
X56697056Y-103302944D03*
D15*
X105000000Y-105000000D03*
D16*
X107400000Y-105000000D03*
X106697056Y-106697056D03*
X105000000Y-107400000D03*
X103302944Y-106697056D03*
X102600000Y-105000000D03*
X103302944Y-103302944D03*
X105000000Y-102600000D03*
X106697056Y-103302944D03*
D15*
X105000000Y-40000000D03*
D16*
X107400000Y-40000000D03*
X106697056Y-41697056D03*
X105000000Y-42400000D03*
X103302944Y-41697056D03*
X102600000Y-40000000D03*
X103302944Y-38302944D03*
X105000000Y-37600000D03*
X106697056Y-38302944D03*
D17*
X65000000Y-99500000D03*
X65000000Y-45500000D03*
D18*
X76750000Y-49670000D03*
D19*
X76750000Y-52210000D03*
X76750000Y-54750000D03*
D18*
X81750000Y-54750000D03*
D19*
X81750000Y-52210000D03*
D18*
X87500000Y-40000000D03*
D19*
X90040000Y-40000000D03*
X92580000Y-40000000D03*
X95120000Y-40000000D03*
D18*
X74880000Y-40000000D03*
D19*
X77420000Y-40000000D03*
X79960000Y-40000000D03*
X82500000Y-40000000D03*
D20*
X87750000Y-49500000D03*
X86250000Y-49500000D03*
X97750000Y-47750000D03*
X96250000Y-47750000D03*
X87750000Y-47750000D03*
X86250000Y-47750000D03*
X87750000Y-51250000D03*
X86250000Y-51250000D03*
D21*
X91500000Y-102250000D03*
X91500000Y-100750000D03*
D20*
X86250000Y-46000000D03*
X87750000Y-46000000D03*
X87750000Y-53000000D03*
X86250000Y-53000000D03*
X82500000Y-49250000D03*
X81000000Y-49250000D03*
X97750000Y-49500000D03*
X96250000Y-49500000D03*
X97750000Y-51250000D03*
X96250000Y-51250000D03*
D21*
X95000000Y-102250000D03*
X95000000Y-100750000D03*
D20*
X77750000Y-96500000D03*
X79250000Y-96500000D03*
D21*
X93250000Y-102250000D03*
X93250000Y-100750000D03*
D22*
X105000000Y-73790000D03*
X105000000Y-71250000D03*
X101250000Y-73750000D03*
X101250000Y-71210000D03*
X78750000Y-105040000D03*
X78750000Y-102500000D03*
X82500000Y-105040000D03*
X82500000Y-102500000D03*
D23*
X77550000Y-91650000D03*
X78500000Y-91650000D03*
X79450000Y-91650000D03*
X79450000Y-94350000D03*
X77550000Y-94350000D03*
D24*
X101500000Y-50500000D03*
X101500000Y-51500000D03*
X101500000Y-52500000D03*
X101500000Y-53500000D03*
X101500000Y-55500000D03*
X101500000Y-58500000D03*
X101500000Y-54500000D03*
X101500000Y-57500000D03*
X101500000Y-61500000D03*
X101500000Y-63500000D03*
X101500000Y-64500000D03*
X101500000Y-60500000D03*
X101500000Y-62500000D03*
X101500000Y-59500000D03*
X101500000Y-56500000D03*
D25*
X103850000Y-47350000D03*
X103850000Y-67650000D03*
D24*
X101500000Y-80500000D03*
X101500000Y-81500000D03*
X101500000Y-82500000D03*
X101500000Y-83500000D03*
X101500000Y-85500000D03*
X101500000Y-88500000D03*
X101500000Y-84500000D03*
X101500000Y-87500000D03*
X101500000Y-91500000D03*
X101500000Y-93500000D03*
X101500000Y-94500000D03*
X101500000Y-90500000D03*
X101500000Y-92500000D03*
X101500000Y-89500000D03*
X101500000Y-86500000D03*
D25*
X103850000Y-77350000D03*
X103850000Y-97650000D03*
D22*
X75000000Y-105040000D03*
X75000000Y-102500000D03*
M02*
