G04 #@! TF.FileFunction,Legend,Top*
%FSLAX46Y46*%
G04 Gerber Fmt 4.6, Leading zero omitted, Abs format (unit mm)*
G04 Created by KiCad (PCBNEW 4.0.7) date 09/10/18 12:16:13*
%MOMM*%
%LPD*%
G01*
G04 APERTURE LIST*
%ADD10C,0.100000*%
%ADD11C,0.200000*%
%ADD12C,0.150000*%
%ADD13C,0.300000*%
%ADD14C,0.127000*%
%ADD15C,0.120000*%
G04 APERTURE END LIST*
D10*
D11*
X95208333Y-95761905D02*
X95208333Y-95166667D01*
X95565476Y-95880952D02*
X94315476Y-95464286D01*
X95565476Y-95047619D01*
X95565476Y-94630952D02*
X94315476Y-94630952D01*
X94315476Y-94333333D01*
X94375000Y-94154761D01*
X94494048Y-94035714D01*
X94613095Y-93976190D01*
X94851190Y-93916666D01*
X95029762Y-93916666D01*
X95267857Y-93976190D01*
X95386905Y-94035714D01*
X95505952Y-94154761D01*
X95565476Y-94333333D01*
X95565476Y-94630952D01*
X95565476Y-93380952D02*
X94315476Y-93380952D01*
X94315476Y-93083333D01*
X94375000Y-92904761D01*
X94494048Y-92785714D01*
X94613095Y-92726190D01*
X94851190Y-92666666D01*
X95029762Y-92666666D01*
X95267857Y-92726190D01*
X95386905Y-92785714D01*
X95505952Y-92904761D01*
X95565476Y-93083333D01*
X95565476Y-93380952D01*
X95565476Y-91416666D02*
X94970238Y-91833333D01*
X95565476Y-92130952D02*
X94315476Y-92130952D01*
X94315476Y-91654761D01*
X94375000Y-91535714D01*
X94434524Y-91476190D01*
X94553571Y-91416666D01*
X94732143Y-91416666D01*
X94851190Y-91476190D01*
X94910714Y-91535714D01*
X94970238Y-91654761D01*
X94970238Y-92130952D01*
X93065476Y-95952381D02*
X91815476Y-95952381D01*
X91934524Y-95416667D02*
X91875000Y-95357143D01*
X91815476Y-95238095D01*
X91815476Y-94940476D01*
X91875000Y-94821429D01*
X91934524Y-94761905D01*
X92053571Y-94702381D01*
X92172619Y-94702381D01*
X92351190Y-94761905D01*
X93065476Y-95476191D01*
X93065476Y-94702381D01*
X92946429Y-93452381D02*
X93005952Y-93511905D01*
X93065476Y-93690476D01*
X93065476Y-93809524D01*
X93005952Y-93988096D01*
X92886905Y-94107143D01*
X92767857Y-94166667D01*
X92529762Y-94226191D01*
X92351190Y-94226191D01*
X92113095Y-94166667D01*
X91994048Y-94107143D01*
X91875000Y-93988096D01*
X91815476Y-93809524D01*
X91815476Y-93690476D01*
X91875000Y-93511905D01*
X91934524Y-93452381D01*
X92410714Y-91964286D02*
X92410714Y-91547619D01*
X93065476Y-91369048D02*
X93065476Y-91964286D01*
X91815476Y-91964286D01*
X91815476Y-91369048D01*
X93065476Y-90833334D02*
X91815476Y-90833334D01*
X93065476Y-90119048D01*
X91815476Y-90119048D01*
X90565476Y-95238095D02*
X89970238Y-95654762D01*
X90565476Y-95952381D02*
X89315476Y-95952381D01*
X89315476Y-95476190D01*
X89375000Y-95357143D01*
X89434524Y-95297619D01*
X89553571Y-95238095D01*
X89732143Y-95238095D01*
X89851190Y-95297619D01*
X89910714Y-95357143D01*
X89970238Y-95476190D01*
X89970238Y-95952381D01*
X89910714Y-94702381D02*
X89910714Y-94285714D01*
X90565476Y-94107143D02*
X90565476Y-94702381D01*
X89315476Y-94702381D01*
X89315476Y-94107143D01*
X90505952Y-93630953D02*
X90565476Y-93452381D01*
X90565476Y-93154762D01*
X90505952Y-93035715D01*
X90446429Y-92976191D01*
X90327381Y-92916667D01*
X90208333Y-92916667D01*
X90089286Y-92976191D01*
X90029762Y-93035715D01*
X89970238Y-93154762D01*
X89910714Y-93392858D01*
X89851190Y-93511905D01*
X89791667Y-93571429D01*
X89672619Y-93630953D01*
X89553571Y-93630953D01*
X89434524Y-93571429D01*
X89375000Y-93511905D01*
X89315476Y-93392858D01*
X89315476Y-93095238D01*
X89375000Y-92916667D01*
X89910714Y-92380953D02*
X89910714Y-91964286D01*
X90565476Y-91785715D02*
X90565476Y-92380953D01*
X89315476Y-92380953D01*
X89315476Y-91785715D01*
X89315476Y-91428572D02*
X89315476Y-90714287D01*
X90565476Y-91071430D02*
X89315476Y-91071430D01*
X85196429Y-55672619D02*
X85255952Y-55732143D01*
X85315476Y-55910714D01*
X85315476Y-56029762D01*
X85255952Y-56208334D01*
X85136905Y-56327381D01*
X85017857Y-56386905D01*
X84779762Y-56446429D01*
X84601190Y-56446429D01*
X84363095Y-56386905D01*
X84244048Y-56327381D01*
X84125000Y-56208334D01*
X84065476Y-56029762D01*
X84065476Y-55910714D01*
X84125000Y-55732143D01*
X84184524Y-55672619D01*
X85315476Y-54541667D02*
X85315476Y-55136905D01*
X84065476Y-55136905D01*
X85315476Y-54125000D02*
X84065476Y-54125000D01*
X85315476Y-53410714D02*
X84601190Y-53946429D01*
X84065476Y-53410714D02*
X84779762Y-54125000D01*
X85315476Y-51922619D02*
X84065476Y-51922619D01*
X85315476Y-51327381D02*
X84065476Y-51327381D01*
X85315476Y-50613095D01*
X84065476Y-50613095D01*
X74196429Y-55136904D02*
X74255952Y-55196428D01*
X74315476Y-55374999D01*
X74315476Y-55494047D01*
X74255952Y-55672619D01*
X74136905Y-55791666D01*
X74017857Y-55851190D01*
X73779762Y-55910714D01*
X73601190Y-55910714D01*
X73363095Y-55851190D01*
X73244048Y-55791666D01*
X73125000Y-55672619D01*
X73065476Y-55494047D01*
X73065476Y-55374999D01*
X73125000Y-55196428D01*
X73184524Y-55136904D01*
X74315476Y-54005952D02*
X74315476Y-54601190D01*
X73065476Y-54601190D01*
X74315476Y-53589285D02*
X73065476Y-53589285D01*
X74315476Y-52874999D02*
X73601190Y-53410714D01*
X73065476Y-52874999D02*
X73779762Y-53589285D01*
X74255952Y-51446428D02*
X74315476Y-51267856D01*
X74315476Y-50970237D01*
X74255952Y-50851190D01*
X74196429Y-50791666D01*
X74077381Y-50732142D01*
X73958333Y-50732142D01*
X73839286Y-50791666D01*
X73779762Y-50851190D01*
X73720238Y-50970237D01*
X73660714Y-51208333D01*
X73601190Y-51327380D01*
X73541667Y-51386904D01*
X73422619Y-51446428D01*
X73303571Y-51446428D01*
X73184524Y-51386904D01*
X73125000Y-51327380D01*
X73065476Y-51208333D01*
X73065476Y-50910713D01*
X73125000Y-50732142D01*
X73660714Y-50196428D02*
X73660714Y-49779761D01*
X74315476Y-49601190D02*
X74315476Y-50196428D01*
X73065476Y-50196428D01*
X73065476Y-49601190D01*
X74315476Y-48470238D02*
X74315476Y-49065476D01*
X73065476Y-49065476D01*
D12*
X89500000Y-44511904D02*
X89452381Y-44607142D01*
X89452381Y-44749999D01*
X89500000Y-44892857D01*
X89595238Y-44988095D01*
X89690476Y-45035714D01*
X89880952Y-45083333D01*
X90023810Y-45083333D01*
X90214286Y-45035714D01*
X90309524Y-44988095D01*
X90404762Y-44892857D01*
X90452381Y-44749999D01*
X90452381Y-44654761D01*
X90404762Y-44511904D01*
X90357143Y-44464285D01*
X90023810Y-44464285D01*
X90023810Y-44654761D01*
X90452381Y-44035714D02*
X89452381Y-44035714D01*
X90452381Y-43464285D01*
X89452381Y-43464285D01*
X90452381Y-42988095D02*
X89452381Y-42988095D01*
X89452381Y-42750000D01*
X89500000Y-42607142D01*
X89595238Y-42511904D01*
X89690476Y-42464285D01*
X89880952Y-42416666D01*
X90023810Y-42416666D01*
X90214286Y-42464285D01*
X90309524Y-42511904D01*
X90404762Y-42607142D01*
X90452381Y-42750000D01*
X90452381Y-42988095D01*
X86952381Y-45083333D02*
X87952381Y-44750000D01*
X86952381Y-44416666D01*
X87857143Y-43511904D02*
X87904762Y-43559523D01*
X87952381Y-43702380D01*
X87952381Y-43797618D01*
X87904762Y-43940476D01*
X87809524Y-44035714D01*
X87714286Y-44083333D01*
X87523810Y-44130952D01*
X87380952Y-44130952D01*
X87190476Y-44083333D01*
X87095238Y-44035714D01*
X87000000Y-43940476D01*
X86952381Y-43797618D01*
X86952381Y-43702380D01*
X87000000Y-43559523D01*
X87047619Y-43511904D01*
X87857143Y-42511904D02*
X87904762Y-42559523D01*
X87952381Y-42702380D01*
X87952381Y-42797618D01*
X87904762Y-42940476D01*
X87809524Y-43035714D01*
X87714286Y-43083333D01*
X87523810Y-43130952D01*
X87380952Y-43130952D01*
X87190476Y-43083333D01*
X87095238Y-43035714D01*
X87000000Y-42940476D01*
X86952381Y-42797618D01*
X86952381Y-42702380D01*
X87000000Y-42559523D01*
X87047619Y-42511904D01*
X92904762Y-44940476D02*
X92952381Y-44797619D01*
X92952381Y-44559523D01*
X92904762Y-44464285D01*
X92857143Y-44416666D01*
X92761905Y-44369047D01*
X92666667Y-44369047D01*
X92571429Y-44416666D01*
X92523810Y-44464285D01*
X92476190Y-44559523D01*
X92428571Y-44750000D01*
X92380952Y-44845238D01*
X92333333Y-44892857D01*
X92238095Y-44940476D01*
X92142857Y-44940476D01*
X92047619Y-44892857D01*
X92000000Y-44845238D01*
X91952381Y-44750000D01*
X91952381Y-44511904D01*
X92000000Y-44369047D01*
X92857143Y-43369047D02*
X92904762Y-43416666D01*
X92952381Y-43559523D01*
X92952381Y-43654761D01*
X92904762Y-43797619D01*
X92809524Y-43892857D01*
X92714286Y-43940476D01*
X92523810Y-43988095D01*
X92380952Y-43988095D01*
X92190476Y-43940476D01*
X92095238Y-43892857D01*
X92000000Y-43797619D01*
X91952381Y-43654761D01*
X91952381Y-43559523D01*
X92000000Y-43416666D01*
X92047619Y-43369047D01*
X92952381Y-42464285D02*
X92952381Y-42940476D01*
X91952381Y-42940476D01*
X95404762Y-44964286D02*
X95452381Y-44821429D01*
X95452381Y-44583333D01*
X95404762Y-44488095D01*
X95357143Y-44440476D01*
X95261905Y-44392857D01*
X95166667Y-44392857D01*
X95071429Y-44440476D01*
X95023810Y-44488095D01*
X94976190Y-44583333D01*
X94928571Y-44773810D01*
X94880952Y-44869048D01*
X94833333Y-44916667D01*
X94738095Y-44964286D01*
X94642857Y-44964286D01*
X94547619Y-44916667D01*
X94500000Y-44869048D01*
X94452381Y-44773810D01*
X94452381Y-44535714D01*
X94500000Y-44392857D01*
X95452381Y-43964286D02*
X94452381Y-43964286D01*
X94452381Y-43726191D01*
X94500000Y-43583333D01*
X94595238Y-43488095D01*
X94690476Y-43440476D01*
X94880952Y-43392857D01*
X95023810Y-43392857D01*
X95214286Y-43440476D01*
X95309524Y-43488095D01*
X95404762Y-43583333D01*
X95452381Y-43726191D01*
X95452381Y-43964286D01*
X95166667Y-43011905D02*
X95166667Y-42535714D01*
X95452381Y-43107143D02*
X94452381Y-42773810D01*
X95452381Y-42440476D01*
X82904762Y-44964286D02*
X82952381Y-44821429D01*
X82952381Y-44583333D01*
X82904762Y-44488095D01*
X82857143Y-44440476D01*
X82761905Y-44392857D01*
X82666667Y-44392857D01*
X82571429Y-44440476D01*
X82523810Y-44488095D01*
X82476190Y-44583333D01*
X82428571Y-44773810D01*
X82380952Y-44869048D01*
X82333333Y-44916667D01*
X82238095Y-44964286D01*
X82142857Y-44964286D01*
X82047619Y-44916667D01*
X82000000Y-44869048D01*
X81952381Y-44773810D01*
X81952381Y-44535714D01*
X82000000Y-44392857D01*
X82952381Y-43964286D02*
X81952381Y-43964286D01*
X81952381Y-43726191D01*
X82000000Y-43583333D01*
X82095238Y-43488095D01*
X82190476Y-43440476D01*
X82380952Y-43392857D01*
X82523810Y-43392857D01*
X82714286Y-43440476D01*
X82809524Y-43488095D01*
X82904762Y-43583333D01*
X82952381Y-43726191D01*
X82952381Y-43964286D01*
X82666667Y-43011905D02*
X82666667Y-42535714D01*
X82952381Y-43107143D02*
X81952381Y-42773810D01*
X82952381Y-42440476D01*
X80404762Y-44940476D02*
X80452381Y-44797619D01*
X80452381Y-44559523D01*
X80404762Y-44464285D01*
X80357143Y-44416666D01*
X80261905Y-44369047D01*
X80166667Y-44369047D01*
X80071429Y-44416666D01*
X80023810Y-44464285D01*
X79976190Y-44559523D01*
X79928571Y-44750000D01*
X79880952Y-44845238D01*
X79833333Y-44892857D01*
X79738095Y-44940476D01*
X79642857Y-44940476D01*
X79547619Y-44892857D01*
X79500000Y-44845238D01*
X79452381Y-44750000D01*
X79452381Y-44511904D01*
X79500000Y-44369047D01*
X80357143Y-43369047D02*
X80404762Y-43416666D01*
X80452381Y-43559523D01*
X80452381Y-43654761D01*
X80404762Y-43797619D01*
X80309524Y-43892857D01*
X80214286Y-43940476D01*
X80023810Y-43988095D01*
X79880952Y-43988095D01*
X79690476Y-43940476D01*
X79595238Y-43892857D01*
X79500000Y-43797619D01*
X79452381Y-43654761D01*
X79452381Y-43559523D01*
X79500000Y-43416666D01*
X79547619Y-43369047D01*
X80452381Y-42464285D02*
X80452381Y-42940476D01*
X79452381Y-42940476D01*
X77000000Y-44511904D02*
X76952381Y-44607142D01*
X76952381Y-44749999D01*
X77000000Y-44892857D01*
X77095238Y-44988095D01*
X77190476Y-45035714D01*
X77380952Y-45083333D01*
X77523810Y-45083333D01*
X77714286Y-45035714D01*
X77809524Y-44988095D01*
X77904762Y-44892857D01*
X77952381Y-44749999D01*
X77952381Y-44654761D01*
X77904762Y-44511904D01*
X77857143Y-44464285D01*
X77523810Y-44464285D01*
X77523810Y-44654761D01*
X77952381Y-44035714D02*
X76952381Y-44035714D01*
X77952381Y-43464285D01*
X76952381Y-43464285D01*
X77952381Y-42988095D02*
X76952381Y-42988095D01*
X76952381Y-42750000D01*
X77000000Y-42607142D01*
X77095238Y-42511904D01*
X77190476Y-42464285D01*
X77380952Y-42416666D01*
X77523810Y-42416666D01*
X77714286Y-42464285D01*
X77809524Y-42511904D01*
X77904762Y-42607142D01*
X77952381Y-42750000D01*
X77952381Y-42988095D01*
X74452381Y-45083333D02*
X75452381Y-44750000D01*
X74452381Y-44416666D01*
X75357143Y-43511904D02*
X75404762Y-43559523D01*
X75452381Y-43702380D01*
X75452381Y-43797618D01*
X75404762Y-43940476D01*
X75309524Y-44035714D01*
X75214286Y-44083333D01*
X75023810Y-44130952D01*
X74880952Y-44130952D01*
X74690476Y-44083333D01*
X74595238Y-44035714D01*
X74500000Y-43940476D01*
X74452381Y-43797618D01*
X74452381Y-43702380D01*
X74500000Y-43559523D01*
X74547619Y-43511904D01*
X75357143Y-42511904D02*
X75404762Y-42559523D01*
X75452381Y-42702380D01*
X75452381Y-42797618D01*
X75404762Y-42940476D01*
X75309524Y-43035714D01*
X75214286Y-43083333D01*
X75023810Y-43130952D01*
X74880952Y-43130952D01*
X74690476Y-43083333D01*
X74595238Y-43035714D01*
X74500000Y-42940476D01*
X74452381Y-42797618D01*
X74452381Y-42702380D01*
X74500000Y-42559523D01*
X74547619Y-42511904D01*
D13*
X86785715Y-37678571D02*
X86785715Y-36178571D01*
X87428572Y-36321429D02*
X87500001Y-36250000D01*
X87642858Y-36178571D01*
X88000001Y-36178571D01*
X88142858Y-36250000D01*
X88214287Y-36321429D01*
X88285715Y-36464286D01*
X88285715Y-36607143D01*
X88214287Y-36821429D01*
X87357144Y-37678571D01*
X88285715Y-37678571D01*
X89785715Y-37535714D02*
X89714286Y-37607143D01*
X89500000Y-37678571D01*
X89357143Y-37678571D01*
X89142858Y-37607143D01*
X89000000Y-37464286D01*
X88928572Y-37321429D01*
X88857143Y-37035714D01*
X88857143Y-36821429D01*
X88928572Y-36535714D01*
X89000000Y-36392857D01*
X89142858Y-36250000D01*
X89357143Y-36178571D01*
X89500000Y-36178571D01*
X89714286Y-36250000D01*
X89785715Y-36321429D01*
X91428572Y-36178571D02*
X92357143Y-36178571D01*
X91857143Y-36750000D01*
X92071429Y-36750000D01*
X92214286Y-36821429D01*
X92285715Y-36892857D01*
X92357143Y-37035714D01*
X92357143Y-37392857D01*
X92285715Y-37535714D01*
X92214286Y-37607143D01*
X92071429Y-37678571D01*
X91642857Y-37678571D01*
X91500000Y-37607143D01*
X91428572Y-37535714D01*
X93000000Y-37535714D02*
X93071428Y-37607143D01*
X93000000Y-37678571D01*
X92928571Y-37607143D01*
X93000000Y-37535714D01*
X93000000Y-37678571D01*
X93571429Y-36178571D02*
X94500000Y-36178571D01*
X94000000Y-36750000D01*
X94214286Y-36750000D01*
X94357143Y-36821429D01*
X94428572Y-36892857D01*
X94500000Y-37035714D01*
X94500000Y-37392857D01*
X94428572Y-37535714D01*
X94357143Y-37607143D01*
X94214286Y-37678571D01*
X93785714Y-37678571D01*
X93642857Y-37607143D01*
X93571429Y-37535714D01*
X94928571Y-36178571D02*
X95428571Y-37678571D01*
X95928571Y-36178571D01*
X77285715Y-37678571D02*
X77285715Y-36178571D01*
X77928572Y-36321429D02*
X78000001Y-36250000D01*
X78142858Y-36178571D01*
X78500001Y-36178571D01*
X78642858Y-36250000D01*
X78714287Y-36321429D01*
X78785715Y-36464286D01*
X78785715Y-36607143D01*
X78714287Y-36821429D01*
X77857144Y-37678571D01*
X78785715Y-37678571D01*
X80285715Y-37535714D02*
X80214286Y-37607143D01*
X80000000Y-37678571D01*
X79857143Y-37678571D01*
X79642858Y-37607143D01*
X79500000Y-37464286D01*
X79428572Y-37321429D01*
X79357143Y-37035714D01*
X79357143Y-36821429D01*
X79428572Y-36535714D01*
X79500000Y-36392857D01*
X79642858Y-36250000D01*
X79857143Y-36178571D01*
X80000000Y-36178571D01*
X80214286Y-36250000D01*
X80285715Y-36321429D01*
D12*
X104627381Y-78357142D02*
X104627381Y-78928571D01*
X104627381Y-78642857D02*
X103627381Y-78642857D01*
X103770238Y-78738095D01*
X103865476Y-78833333D01*
X103913095Y-78928571D01*
X104532143Y-77928571D02*
X104579762Y-77880952D01*
X104627381Y-77928571D01*
X104579762Y-77976190D01*
X104532143Y-77928571D01*
X104627381Y-77928571D01*
X104055952Y-77309524D02*
X104008333Y-77404762D01*
X103960714Y-77452381D01*
X103865476Y-77500000D01*
X103817857Y-77500000D01*
X103722619Y-77452381D01*
X103675000Y-77404762D01*
X103627381Y-77309524D01*
X103627381Y-77119047D01*
X103675000Y-77023809D01*
X103722619Y-76976190D01*
X103817857Y-76928571D01*
X103865476Y-76928571D01*
X103960714Y-76976190D01*
X104008333Y-77023809D01*
X104055952Y-77119047D01*
X104055952Y-77309524D01*
X104103571Y-77404762D01*
X104151190Y-77452381D01*
X104246429Y-77500000D01*
X104436905Y-77500000D01*
X104532143Y-77452381D01*
X104579762Y-77404762D01*
X104627381Y-77309524D01*
X104627381Y-77119047D01*
X104579762Y-77023809D01*
X104532143Y-76976190D01*
X104436905Y-76928571D01*
X104246429Y-76928571D01*
X104151190Y-76976190D01*
X104103571Y-77023809D01*
X104055952Y-77119047D01*
X103627381Y-76642857D02*
X104627381Y-76309524D01*
X103627381Y-75976190D01*
X106277381Y-79428571D02*
X105277381Y-79428571D01*
X106277381Y-78952381D02*
X105277381Y-78952381D01*
X106277381Y-78380952D01*
X105277381Y-78380952D01*
X106277381Y-77904762D02*
X105277381Y-77904762D01*
X105277381Y-77523809D01*
X105325000Y-77428571D01*
X105372619Y-77380952D01*
X105467857Y-77333333D01*
X105610714Y-77333333D01*
X105705952Y-77380952D01*
X105753571Y-77428571D01*
X105801190Y-77523809D01*
X105801190Y-77904762D01*
X105277381Y-76904762D02*
X106086905Y-76904762D01*
X106182143Y-76857143D01*
X106229762Y-76809524D01*
X106277381Y-76714286D01*
X106277381Y-76523809D01*
X106229762Y-76428571D01*
X106182143Y-76380952D01*
X106086905Y-76333333D01*
X105277381Y-76333333D01*
X105277381Y-76000000D02*
X105277381Y-75428571D01*
X106277381Y-75714286D02*
X105277381Y-75714286D01*
X101702381Y-78357142D02*
X101702381Y-78928571D01*
X101702381Y-78642857D02*
X100702381Y-78642857D01*
X100845238Y-78738095D01*
X100940476Y-78833333D01*
X100988095Y-78928571D01*
X101607143Y-77928571D02*
X101654762Y-77880952D01*
X101702381Y-77928571D01*
X101654762Y-77976190D01*
X101607143Y-77928571D01*
X101702381Y-77928571D01*
X101130952Y-77309524D02*
X101083333Y-77404762D01*
X101035714Y-77452381D01*
X100940476Y-77500000D01*
X100892857Y-77500000D01*
X100797619Y-77452381D01*
X100750000Y-77404762D01*
X100702381Y-77309524D01*
X100702381Y-77119047D01*
X100750000Y-77023809D01*
X100797619Y-76976190D01*
X100892857Y-76928571D01*
X100940476Y-76928571D01*
X101035714Y-76976190D01*
X101083333Y-77023809D01*
X101130952Y-77119047D01*
X101130952Y-77309524D01*
X101178571Y-77404762D01*
X101226190Y-77452381D01*
X101321429Y-77500000D01*
X101511905Y-77500000D01*
X101607143Y-77452381D01*
X101654762Y-77404762D01*
X101702381Y-77309524D01*
X101702381Y-77119047D01*
X101654762Y-77023809D01*
X101607143Y-76976190D01*
X101511905Y-76928571D01*
X101321429Y-76928571D01*
X101226190Y-76976190D01*
X101178571Y-77023809D01*
X101130952Y-77119047D01*
X100702381Y-76642857D02*
X101702381Y-76309524D01*
X100702381Y-75976190D01*
X82127381Y-100273809D02*
X81127381Y-100273809D01*
X82127381Y-99226190D02*
X81651190Y-99559524D01*
X82127381Y-99797619D02*
X81127381Y-99797619D01*
X81127381Y-99416666D01*
X81175000Y-99321428D01*
X81222619Y-99273809D01*
X81317857Y-99226190D01*
X81460714Y-99226190D01*
X81555952Y-99273809D01*
X81603571Y-99321428D01*
X81651190Y-99416666D01*
X81651190Y-99797619D01*
X82222619Y-98130952D02*
X82175000Y-98226190D01*
X82079762Y-98321428D01*
X81936905Y-98464285D01*
X81889286Y-98559524D01*
X81889286Y-98654762D01*
X82127381Y-98607143D02*
X82079762Y-98702381D01*
X81984524Y-98797619D01*
X81794048Y-98845238D01*
X81460714Y-98845238D01*
X81270238Y-98797619D01*
X81175000Y-98702381D01*
X81127381Y-98607143D01*
X81127381Y-98416666D01*
X81175000Y-98321428D01*
X81270238Y-98226190D01*
X81460714Y-98178571D01*
X81794048Y-98178571D01*
X81984524Y-98226190D01*
X82079762Y-98321428D01*
X82127381Y-98416666D01*
X82127381Y-98607143D01*
X82777381Y-100726190D02*
X82777381Y-100107142D01*
X83158333Y-100440476D01*
X83158333Y-100297618D01*
X83205952Y-100202380D01*
X83253571Y-100154761D01*
X83348810Y-100107142D01*
X83586905Y-100107142D01*
X83682143Y-100154761D01*
X83729762Y-100202380D01*
X83777381Y-100297618D01*
X83777381Y-100583333D01*
X83729762Y-100678571D01*
X83682143Y-100726190D01*
X83682143Y-99678571D02*
X83729762Y-99630952D01*
X83777381Y-99678571D01*
X83729762Y-99726190D01*
X83682143Y-99678571D01*
X83777381Y-99678571D01*
X82777381Y-99297619D02*
X82777381Y-98678571D01*
X83158333Y-99011905D01*
X83158333Y-98869047D01*
X83205952Y-98773809D01*
X83253571Y-98726190D01*
X83348810Y-98678571D01*
X83586905Y-98678571D01*
X83682143Y-98726190D01*
X83729762Y-98773809D01*
X83777381Y-98869047D01*
X83777381Y-99154762D01*
X83729762Y-99250000D01*
X83682143Y-99297619D01*
X82777381Y-98392857D02*
X83777381Y-98059524D01*
X82777381Y-97726190D01*
X79202381Y-100273809D02*
X78202381Y-100273809D01*
X79202381Y-99226190D02*
X78726190Y-99559524D01*
X79202381Y-99797619D02*
X78202381Y-99797619D01*
X78202381Y-99416666D01*
X78250000Y-99321428D01*
X78297619Y-99273809D01*
X78392857Y-99226190D01*
X78535714Y-99226190D01*
X78630952Y-99273809D01*
X78678571Y-99321428D01*
X78726190Y-99416666D01*
X78726190Y-99797619D01*
X79297619Y-98130952D02*
X79250000Y-98226190D01*
X79154762Y-98321428D01*
X79011905Y-98464285D01*
X78964286Y-98559524D01*
X78964286Y-98654762D01*
X79202381Y-98607143D02*
X79154762Y-98702381D01*
X79059524Y-98797619D01*
X78869048Y-98845238D01*
X78535714Y-98845238D01*
X78345238Y-98797619D01*
X78250000Y-98702381D01*
X78202381Y-98607143D01*
X78202381Y-98416666D01*
X78250000Y-98321428D01*
X78345238Y-98226190D01*
X78535714Y-98178571D01*
X78869048Y-98178571D01*
X79059524Y-98226190D01*
X79154762Y-98321428D01*
X79202381Y-98416666D01*
X79202381Y-98607143D01*
X74500000Y-100011904D02*
X74452381Y-100107142D01*
X74452381Y-100249999D01*
X74500000Y-100392857D01*
X74595238Y-100488095D01*
X74690476Y-100535714D01*
X74880952Y-100583333D01*
X75023810Y-100583333D01*
X75214286Y-100535714D01*
X75309524Y-100488095D01*
X75404762Y-100392857D01*
X75452381Y-100249999D01*
X75452381Y-100154761D01*
X75404762Y-100011904D01*
X75357143Y-99964285D01*
X75023810Y-99964285D01*
X75023810Y-100154761D01*
X75452381Y-99535714D02*
X74452381Y-99535714D01*
X75452381Y-98964285D01*
X74452381Y-98964285D01*
X75452381Y-98488095D02*
X74452381Y-98488095D01*
X74452381Y-98250000D01*
X74500000Y-98107142D01*
X74595238Y-98011904D01*
X74690476Y-97964285D01*
X74880952Y-97916666D01*
X75023810Y-97916666D01*
X75214286Y-97964285D01*
X75309524Y-98011904D01*
X75404762Y-98107142D01*
X75452381Y-98250000D01*
X75452381Y-98488095D01*
D14*
X69249420Y-51301160D02*
X69249420Y-93698840D01*
X69249420Y-93698840D02*
X60750580Y-93698840D01*
X60750580Y-93698840D02*
X60750580Y-51301160D01*
X60750580Y-51301160D02*
X69249420Y-51301160D01*
D15*
X84150000Y-59500000D02*
X84150000Y-60500000D01*
X85850000Y-60500000D02*
X85850000Y-59500000D01*
X82650000Y-60350000D02*
X82650000Y-59650000D01*
X83850000Y-59650000D02*
X83850000Y-60350000D01*
X73850000Y-72350000D02*
X73150000Y-72350000D01*
X73150000Y-71150000D02*
X73850000Y-71150000D01*
X73850000Y-73850000D02*
X73150000Y-73850000D01*
X73150000Y-72650000D02*
X73850000Y-72650000D01*
X96400000Y-71150000D02*
X97100000Y-71150000D01*
X97100000Y-72350000D02*
X96400000Y-72350000D01*
X96400000Y-72650000D02*
X97100000Y-72650000D01*
X97100000Y-73850000D02*
X96400000Y-73850000D01*
X86350000Y-83900000D02*
X86350000Y-84600000D01*
X85150000Y-84600000D02*
X85150000Y-83900000D01*
X84850000Y-83900000D02*
X84850000Y-84600000D01*
X83650000Y-84600000D02*
X83650000Y-83900000D01*
X80900000Y-60350000D02*
X80900000Y-59650000D01*
X82100000Y-59650000D02*
X82100000Y-60350000D01*
X53750000Y-84350000D02*
X54750000Y-84350000D01*
X54750000Y-82650000D02*
X53750000Y-82650000D01*
X53750000Y-82350000D02*
X54750000Y-82350000D01*
X54750000Y-80650000D02*
X53750000Y-80650000D01*
X83000000Y-94300000D02*
X84000000Y-94300000D01*
X84000000Y-94300000D02*
X84000000Y-92200000D01*
X83000000Y-94300000D02*
X83000000Y-92200000D01*
X86370000Y-60600000D02*
X86370000Y-59400000D01*
X88130000Y-59400000D02*
X88130000Y-60600000D01*
X75420000Y-50940000D02*
X75420000Y-56080000D01*
X75420000Y-56080000D02*
X78080000Y-56080000D01*
X78080000Y-56080000D02*
X78080000Y-50940000D01*
X78080000Y-50940000D02*
X75420000Y-50940000D01*
X75420000Y-49670000D02*
X75420000Y-48340000D01*
X75420000Y-48340000D02*
X76750000Y-48340000D01*
X83080000Y-53480000D02*
X83080000Y-50880000D01*
X83080000Y-50880000D02*
X80420000Y-50880000D01*
X80420000Y-50880000D02*
X80420000Y-53480000D01*
X80420000Y-53480000D02*
X83080000Y-53480000D01*
X83080000Y-54750000D02*
X83080000Y-56080000D01*
X83080000Y-56080000D02*
X81750000Y-56080000D01*
X97210000Y-99655000D02*
X97210000Y-105345000D01*
X97210000Y-105345000D02*
X87790000Y-105345000D01*
X87790000Y-105345000D02*
X87790000Y-99655000D01*
X87790000Y-99655000D02*
X93770000Y-99655000D01*
X95675000Y-100690000D02*
X94405000Y-100690000D01*
X94405000Y-100690000D02*
X94405000Y-104310000D01*
X94405000Y-104310000D02*
X95675000Y-104310000D01*
X95675000Y-104310000D02*
X95675000Y-100690000D01*
X95675000Y-102500000D02*
X94405000Y-102500000D01*
X93135000Y-100690000D02*
X91865000Y-100690000D01*
X91865000Y-100690000D02*
X91865000Y-104310000D01*
X91865000Y-104310000D02*
X93135000Y-104310000D01*
X93135000Y-104310000D02*
X93135000Y-100690000D01*
X93135000Y-102500000D02*
X91865000Y-102500000D01*
X90595000Y-100690000D02*
X89325000Y-100690000D01*
X89325000Y-100690000D02*
X89325000Y-104310000D01*
X89325000Y-104310000D02*
X90595000Y-104310000D01*
X90595000Y-104310000D02*
X90595000Y-100690000D01*
X90595000Y-102500000D02*
X89325000Y-102500000D01*
X88770000Y-41330000D02*
X96450000Y-41330000D01*
X96450000Y-41330000D02*
X96450000Y-38670000D01*
X96450000Y-38670000D02*
X88770000Y-38670000D01*
X88770000Y-38670000D02*
X88770000Y-41330000D01*
X87500000Y-41330000D02*
X86170000Y-41330000D01*
X86170000Y-41330000D02*
X86170000Y-40000000D01*
X76150000Y-41330000D02*
X83830000Y-41330000D01*
X83830000Y-41330000D02*
X83830000Y-38670000D01*
X83830000Y-38670000D02*
X76150000Y-38670000D01*
X76150000Y-38670000D02*
X76150000Y-41330000D01*
X74880000Y-41330000D02*
X73550000Y-41330000D01*
X73550000Y-41330000D02*
X73550000Y-40000000D01*
D12*
X106000000Y-71270000D02*
X106000000Y-73770000D01*
X104000000Y-71270000D02*
X104000000Y-73770000D01*
X106000000Y-71270000D02*
G75*
G03X104000000Y-71270000I-1000000J0D01*
G01*
X104000000Y-73770000D02*
G75*
G03X106000000Y-73770000I1000000J0D01*
G01*
X102250000Y-71230000D02*
X102250000Y-73730000D01*
X100250000Y-71230000D02*
X100250000Y-73730000D01*
X102250000Y-71230000D02*
G75*
G03X100250000Y-71230000I-1000000J0D01*
G01*
X100250000Y-73730000D02*
G75*
G03X102250000Y-73730000I1000000J0D01*
G01*
X79750000Y-102520000D02*
X79750000Y-105020000D01*
X77750000Y-102520000D02*
X77750000Y-105020000D01*
X79750000Y-102520000D02*
G75*
G03X77750000Y-102520000I-1000000J0D01*
G01*
X77750000Y-105020000D02*
G75*
G03X79750000Y-105020000I1000000J0D01*
G01*
X83500000Y-102520000D02*
X83500000Y-105020000D01*
X81500000Y-102520000D02*
X81500000Y-105020000D01*
X83500000Y-102520000D02*
G75*
G03X81500000Y-102520000I-1000000J0D01*
G01*
X81500000Y-105020000D02*
G75*
G03X83500000Y-105020000I1000000J0D01*
G01*
D15*
X73000000Y-59930000D02*
X72000000Y-59930000D01*
X72000000Y-58570000D02*
X73000000Y-58570000D01*
X72000000Y-60070000D02*
X73000000Y-60070000D01*
X73000000Y-61430000D02*
X72000000Y-61430000D01*
X73000000Y-84930000D02*
X72000000Y-84930000D01*
X72000000Y-83570000D02*
X73000000Y-83570000D01*
X82430000Y-92500000D02*
X82430000Y-93500000D01*
X81070000Y-93500000D02*
X81070000Y-92500000D01*
D12*
X76000000Y-102520000D02*
X76000000Y-105020000D01*
X74000000Y-102520000D02*
X74000000Y-105020000D01*
X76000000Y-102520000D02*
G75*
G03X74000000Y-102520000I-1000000J0D01*
G01*
X74000000Y-105020000D02*
G75*
G03X76000000Y-105020000I1000000J0D01*
G01*
X85267857Y-62875000D02*
X85303571Y-62910714D01*
X85339286Y-63017857D01*
X85339286Y-63089286D01*
X85303571Y-63196429D01*
X85232143Y-63267857D01*
X85160714Y-63303572D01*
X85017857Y-63339286D01*
X84910714Y-63339286D01*
X84767857Y-63303572D01*
X84696429Y-63267857D01*
X84625000Y-63196429D01*
X84589286Y-63089286D01*
X84589286Y-63017857D01*
X84625000Y-62910714D01*
X84660714Y-62875000D01*
X85339286Y-62160714D02*
X85339286Y-62589286D01*
X85339286Y-62375000D02*
X84589286Y-62375000D01*
X84696429Y-62446429D01*
X84767857Y-62517857D01*
X84803571Y-62589286D01*
X83517857Y-62875000D02*
X83553571Y-62910714D01*
X83589286Y-63017857D01*
X83589286Y-63089286D01*
X83553571Y-63196429D01*
X83482143Y-63267857D01*
X83410714Y-63303572D01*
X83267857Y-63339286D01*
X83160714Y-63339286D01*
X83017857Y-63303572D01*
X82946429Y-63267857D01*
X82875000Y-63196429D01*
X82839286Y-63089286D01*
X82839286Y-63017857D01*
X82875000Y-62910714D01*
X82910714Y-62875000D01*
X82910714Y-62589286D02*
X82875000Y-62553572D01*
X82839286Y-62482143D01*
X82839286Y-62303572D01*
X82875000Y-62232143D01*
X82910714Y-62196429D01*
X82982143Y-62160714D01*
X83053571Y-62160714D01*
X83160714Y-62196429D01*
X83589286Y-62625000D01*
X83589286Y-62160714D01*
X75875000Y-72017857D02*
X75839286Y-72053571D01*
X75732143Y-72089286D01*
X75660714Y-72089286D01*
X75553571Y-72053571D01*
X75482143Y-71982143D01*
X75446428Y-71910714D01*
X75410714Y-71767857D01*
X75410714Y-71660714D01*
X75446428Y-71517857D01*
X75482143Y-71446429D01*
X75553571Y-71375000D01*
X75660714Y-71339286D01*
X75732143Y-71339286D01*
X75839286Y-71375000D01*
X75875000Y-71410714D01*
X76125000Y-71339286D02*
X76589286Y-71339286D01*
X76339286Y-71625000D01*
X76446428Y-71625000D01*
X76517857Y-71660714D01*
X76553571Y-71696429D01*
X76589286Y-71767857D01*
X76589286Y-71946429D01*
X76553571Y-72017857D01*
X76517857Y-72053571D01*
X76446428Y-72089286D01*
X76232143Y-72089286D01*
X76160714Y-72053571D01*
X76125000Y-72017857D01*
X75875000Y-73517857D02*
X75839286Y-73553571D01*
X75732143Y-73589286D01*
X75660714Y-73589286D01*
X75553571Y-73553571D01*
X75482143Y-73482143D01*
X75446428Y-73410714D01*
X75410714Y-73267857D01*
X75410714Y-73160714D01*
X75446428Y-73017857D01*
X75482143Y-72946429D01*
X75553571Y-72875000D01*
X75660714Y-72839286D01*
X75732143Y-72839286D01*
X75839286Y-72875000D01*
X75875000Y-72910714D01*
X76517857Y-73089286D02*
X76517857Y-73589286D01*
X76339286Y-72803571D02*
X76160714Y-73339286D01*
X76625000Y-73339286D01*
X94375000Y-72017857D02*
X94339286Y-72053571D01*
X94232143Y-72089286D01*
X94160714Y-72089286D01*
X94053571Y-72053571D01*
X93982143Y-71982143D01*
X93946428Y-71910714D01*
X93910714Y-71767857D01*
X93910714Y-71660714D01*
X93946428Y-71517857D01*
X93982143Y-71446429D01*
X94053571Y-71375000D01*
X94160714Y-71339286D01*
X94232143Y-71339286D01*
X94339286Y-71375000D01*
X94375000Y-71410714D01*
X95053571Y-71339286D02*
X94696428Y-71339286D01*
X94660714Y-71696429D01*
X94696428Y-71660714D01*
X94767857Y-71625000D01*
X94946428Y-71625000D01*
X95017857Y-71660714D01*
X95053571Y-71696429D01*
X95089286Y-71767857D01*
X95089286Y-71946429D01*
X95053571Y-72017857D01*
X95017857Y-72053571D01*
X94946428Y-72089286D01*
X94767857Y-72089286D01*
X94696428Y-72053571D01*
X94660714Y-72017857D01*
X94375000Y-73517857D02*
X94339286Y-73553571D01*
X94232143Y-73589286D01*
X94160714Y-73589286D01*
X94053571Y-73553571D01*
X93982143Y-73482143D01*
X93946428Y-73410714D01*
X93910714Y-73267857D01*
X93910714Y-73160714D01*
X93946428Y-73017857D01*
X93982143Y-72946429D01*
X94053571Y-72875000D01*
X94160714Y-72839286D01*
X94232143Y-72839286D01*
X94339286Y-72875000D01*
X94375000Y-72910714D01*
X95017857Y-72839286D02*
X94875000Y-72839286D01*
X94803571Y-72875000D01*
X94767857Y-72910714D01*
X94696428Y-73017857D01*
X94660714Y-73160714D01*
X94660714Y-73446429D01*
X94696428Y-73517857D01*
X94732143Y-73553571D01*
X94803571Y-73589286D01*
X94946428Y-73589286D01*
X95017857Y-73553571D01*
X95053571Y-73517857D01*
X95089286Y-73446429D01*
X95089286Y-73267857D01*
X95053571Y-73196429D01*
X95017857Y-73160714D01*
X94946428Y-73125000D01*
X94803571Y-73125000D01*
X94732143Y-73160714D01*
X94696428Y-73196429D01*
X94660714Y-73267857D01*
X86017857Y-82125000D02*
X86053571Y-82160714D01*
X86089286Y-82267857D01*
X86089286Y-82339286D01*
X86053571Y-82446429D01*
X85982143Y-82517857D01*
X85910714Y-82553572D01*
X85767857Y-82589286D01*
X85660714Y-82589286D01*
X85517857Y-82553572D01*
X85446429Y-82517857D01*
X85375000Y-82446429D01*
X85339286Y-82339286D01*
X85339286Y-82267857D01*
X85375000Y-82160714D01*
X85410714Y-82125000D01*
X85339286Y-81875000D02*
X85339286Y-81375000D01*
X86089286Y-81696429D01*
X84517857Y-82125000D02*
X84553571Y-82160714D01*
X84589286Y-82267857D01*
X84589286Y-82339286D01*
X84553571Y-82446429D01*
X84482143Y-82517857D01*
X84410714Y-82553572D01*
X84267857Y-82589286D01*
X84160714Y-82589286D01*
X84017857Y-82553572D01*
X83946429Y-82517857D01*
X83875000Y-82446429D01*
X83839286Y-82339286D01*
X83839286Y-82267857D01*
X83875000Y-82160714D01*
X83910714Y-82125000D01*
X84160714Y-81696429D02*
X84125000Y-81767857D01*
X84089286Y-81803572D01*
X84017857Y-81839286D01*
X83982143Y-81839286D01*
X83910714Y-81803572D01*
X83875000Y-81767857D01*
X83839286Y-81696429D01*
X83839286Y-81553572D01*
X83875000Y-81482143D01*
X83910714Y-81446429D01*
X83982143Y-81410714D01*
X84017857Y-81410714D01*
X84089286Y-81446429D01*
X84125000Y-81482143D01*
X84160714Y-81553572D01*
X84160714Y-81696429D01*
X84196429Y-81767857D01*
X84232143Y-81803572D01*
X84303571Y-81839286D01*
X84446429Y-81839286D01*
X84517857Y-81803572D01*
X84553571Y-81767857D01*
X84589286Y-81696429D01*
X84589286Y-81553572D01*
X84553571Y-81482143D01*
X84517857Y-81446429D01*
X84446429Y-81410714D01*
X84303571Y-81410714D01*
X84232143Y-81446429D01*
X84196429Y-81482143D01*
X84160714Y-81553572D01*
X81767857Y-62875000D02*
X81803571Y-62910714D01*
X81839286Y-63017857D01*
X81839286Y-63089286D01*
X81803571Y-63196429D01*
X81732143Y-63267857D01*
X81660714Y-63303572D01*
X81517857Y-63339286D01*
X81410714Y-63339286D01*
X81267857Y-63303572D01*
X81196429Y-63267857D01*
X81125000Y-63196429D01*
X81089286Y-63089286D01*
X81089286Y-63017857D01*
X81125000Y-62910714D01*
X81160714Y-62875000D01*
X81839286Y-62517857D02*
X81839286Y-62375000D01*
X81803571Y-62303572D01*
X81767857Y-62267857D01*
X81660714Y-62196429D01*
X81517857Y-62160714D01*
X81232143Y-62160714D01*
X81160714Y-62196429D01*
X81125000Y-62232143D01*
X81089286Y-62303572D01*
X81089286Y-62446429D01*
X81125000Y-62517857D01*
X81160714Y-62553572D01*
X81232143Y-62589286D01*
X81410714Y-62589286D01*
X81482143Y-62553572D01*
X81517857Y-62517857D01*
X81553571Y-62446429D01*
X81553571Y-62303572D01*
X81517857Y-62232143D01*
X81482143Y-62196429D01*
X81410714Y-62160714D01*
X56767857Y-83767857D02*
X56732143Y-83803571D01*
X56625000Y-83839286D01*
X56553571Y-83839286D01*
X56446428Y-83803571D01*
X56375000Y-83732143D01*
X56339285Y-83660714D01*
X56303571Y-83517857D01*
X56303571Y-83410714D01*
X56339285Y-83267857D01*
X56375000Y-83196429D01*
X56446428Y-83125000D01*
X56553571Y-83089286D01*
X56625000Y-83089286D01*
X56732143Y-83125000D01*
X56767857Y-83160714D01*
X57482143Y-83839286D02*
X57053571Y-83839286D01*
X57267857Y-83839286D02*
X57267857Y-83089286D01*
X57196428Y-83196429D01*
X57125000Y-83267857D01*
X57053571Y-83303571D01*
X58160714Y-83089286D02*
X57803571Y-83089286D01*
X57767857Y-83446429D01*
X57803571Y-83410714D01*
X57875000Y-83375000D01*
X58053571Y-83375000D01*
X58125000Y-83410714D01*
X58160714Y-83446429D01*
X58196429Y-83517857D01*
X58196429Y-83696429D01*
X58160714Y-83767857D01*
X58125000Y-83803571D01*
X58053571Y-83839286D01*
X57875000Y-83839286D01*
X57803571Y-83803571D01*
X57767857Y-83767857D01*
X56767857Y-81767857D02*
X56732143Y-81803571D01*
X56625000Y-81839286D01*
X56553571Y-81839286D01*
X56446428Y-81803571D01*
X56375000Y-81732143D01*
X56339285Y-81660714D01*
X56303571Y-81517857D01*
X56303571Y-81410714D01*
X56339285Y-81267857D01*
X56375000Y-81196429D01*
X56446428Y-81125000D01*
X56553571Y-81089286D01*
X56625000Y-81089286D01*
X56732143Y-81125000D01*
X56767857Y-81160714D01*
X57482143Y-81839286D02*
X57053571Y-81839286D01*
X57267857Y-81839286D02*
X57267857Y-81089286D01*
X57196428Y-81196429D01*
X57125000Y-81267857D01*
X57053571Y-81303571D01*
X58125000Y-81089286D02*
X57982143Y-81089286D01*
X57910714Y-81125000D01*
X57875000Y-81160714D01*
X57803571Y-81267857D01*
X57767857Y-81410714D01*
X57767857Y-81696429D01*
X57803571Y-81767857D01*
X57839286Y-81803571D01*
X57910714Y-81839286D01*
X58053571Y-81839286D01*
X58125000Y-81803571D01*
X58160714Y-81767857D01*
X58196429Y-81696429D01*
X58196429Y-81517857D01*
X58160714Y-81446429D01*
X58125000Y-81410714D01*
X58053571Y-81375000D01*
X57910714Y-81375000D01*
X57839286Y-81410714D01*
X57803571Y-81446429D01*
X57767857Y-81517857D01*
X85339286Y-93553572D02*
X84589286Y-93553572D01*
X84589286Y-93375000D01*
X84625000Y-93267857D01*
X84696429Y-93196429D01*
X84767857Y-93160714D01*
X84910714Y-93125000D01*
X85017857Y-93125000D01*
X85160714Y-93160714D01*
X85232143Y-93196429D01*
X85303571Y-93267857D01*
X85339286Y-93375000D01*
X85339286Y-93553572D01*
X85339286Y-92410714D02*
X85339286Y-92839286D01*
X85339286Y-92625000D02*
X84589286Y-92625000D01*
X84696429Y-92696429D01*
X84767857Y-92767857D01*
X84803571Y-92839286D01*
X87196429Y-63375000D02*
X87196429Y-63625000D01*
X87589286Y-63625000D02*
X86839286Y-63625000D01*
X86839286Y-63267857D01*
X87196429Y-62732143D02*
X87232143Y-62625000D01*
X87267857Y-62589285D01*
X87339286Y-62553571D01*
X87446429Y-62553571D01*
X87517857Y-62589285D01*
X87553571Y-62625000D01*
X87589286Y-62696428D01*
X87589286Y-62982143D01*
X86839286Y-62982143D01*
X86839286Y-62732143D01*
X86875000Y-62660714D01*
X86910714Y-62625000D01*
X86982143Y-62589285D01*
X87053571Y-62589285D01*
X87125000Y-62625000D01*
X87160714Y-62660714D01*
X87196429Y-62732143D01*
X87196429Y-62982143D01*
X87589286Y-61839285D02*
X87589286Y-62267857D01*
X87589286Y-62053571D02*
X86839286Y-62053571D01*
X86946429Y-62125000D01*
X87017857Y-62196428D01*
X87053571Y-62267857D01*
X76500000Y-46929286D02*
X76500000Y-47465000D01*
X76464286Y-47572143D01*
X76392857Y-47643571D01*
X76285714Y-47679286D01*
X76214286Y-47679286D01*
X77250001Y-47679286D02*
X76821429Y-47679286D01*
X77035715Y-47679286D02*
X77035715Y-46929286D01*
X76964286Y-47036429D01*
X76892858Y-47107857D01*
X76821429Y-47143571D01*
X81500000Y-49339286D02*
X81500000Y-49875000D01*
X81464286Y-49982143D01*
X81392857Y-50053571D01*
X81285714Y-50089286D01*
X81214286Y-50089286D01*
X81821429Y-49410714D02*
X81857143Y-49375000D01*
X81928572Y-49339286D01*
X82107143Y-49339286D01*
X82178572Y-49375000D01*
X82214286Y-49410714D01*
X82250001Y-49482143D01*
X82250001Y-49553571D01*
X82214286Y-49660714D01*
X81785715Y-50089286D01*
X82250001Y-50089286D01*
X84759286Y-40250000D02*
X85295000Y-40250000D01*
X85402143Y-40285714D01*
X85473571Y-40357143D01*
X85509286Y-40464286D01*
X85509286Y-40535714D01*
X85009286Y-39571428D02*
X85509286Y-39571428D01*
X84723571Y-39749999D02*
X85259286Y-39928571D01*
X85259286Y-39464285D01*
X72139286Y-40250000D02*
X72675000Y-40250000D01*
X72782143Y-40285714D01*
X72853571Y-40357143D01*
X72889286Y-40464286D01*
X72889286Y-40535714D01*
X72139286Y-39535714D02*
X72139286Y-39892857D01*
X72496429Y-39928571D01*
X72460714Y-39892857D01*
X72425000Y-39821428D01*
X72425000Y-39642857D01*
X72460714Y-39571428D01*
X72496429Y-39535714D01*
X72567857Y-39499999D01*
X72746429Y-39499999D01*
X72817857Y-39535714D01*
X72853571Y-39571428D01*
X72889286Y-39642857D01*
X72889286Y-39821428D01*
X72853571Y-39892857D01*
X72817857Y-39928571D01*
X102839286Y-73466428D02*
X102839286Y-73037857D01*
X103589286Y-73252143D02*
X102839286Y-73252143D01*
X103589286Y-72787857D02*
X102839286Y-72787857D01*
X102839286Y-72502142D01*
X102875000Y-72430714D01*
X102910714Y-72394999D01*
X102982143Y-72359285D01*
X103089286Y-72359285D01*
X103160714Y-72394999D01*
X103196429Y-72430714D01*
X103232143Y-72502142D01*
X103232143Y-72787857D01*
X103589286Y-71644999D02*
X103589286Y-72073571D01*
X103589286Y-71859285D02*
X102839286Y-71859285D01*
X102946429Y-71930714D01*
X103017857Y-72002142D01*
X103053571Y-72073571D01*
X99089286Y-73446428D02*
X99089286Y-73017857D01*
X99839286Y-73232143D02*
X99089286Y-73232143D01*
X99839286Y-72767857D02*
X99089286Y-72767857D01*
X99089286Y-72482142D01*
X99125000Y-72410714D01*
X99160714Y-72374999D01*
X99232143Y-72339285D01*
X99339286Y-72339285D01*
X99410714Y-72374999D01*
X99446429Y-72410714D01*
X99482143Y-72482142D01*
X99482143Y-72767857D01*
X99160714Y-72053571D02*
X99125000Y-72017857D01*
X99089286Y-71946428D01*
X99089286Y-71767857D01*
X99125000Y-71696428D01*
X99160714Y-71660714D01*
X99232143Y-71624999D01*
X99303571Y-71624999D01*
X99410714Y-71660714D01*
X99839286Y-72089285D01*
X99839286Y-71624999D01*
X76589286Y-104716428D02*
X76589286Y-104287857D01*
X77339286Y-104502143D02*
X76589286Y-104502143D01*
X77339286Y-104037857D02*
X76589286Y-104037857D01*
X76589286Y-103752142D01*
X76625000Y-103680714D01*
X76660714Y-103644999D01*
X76732143Y-103609285D01*
X76839286Y-103609285D01*
X76910714Y-103644999D01*
X76946429Y-103680714D01*
X76982143Y-103752142D01*
X76982143Y-104037857D01*
X76589286Y-103359285D02*
X76589286Y-102894999D01*
X76875000Y-103144999D01*
X76875000Y-103037857D01*
X76910714Y-102966428D01*
X76946429Y-102930714D01*
X77017857Y-102894999D01*
X77196429Y-102894999D01*
X77267857Y-102930714D01*
X77303571Y-102966428D01*
X77339286Y-103037857D01*
X77339286Y-103252142D01*
X77303571Y-103323571D01*
X77267857Y-103359285D01*
X80339286Y-104716428D02*
X80339286Y-104287857D01*
X81089286Y-104502143D02*
X80339286Y-104502143D01*
X81089286Y-104037857D02*
X80339286Y-104037857D01*
X80339286Y-103752142D01*
X80375000Y-103680714D01*
X80410714Y-103644999D01*
X80482143Y-103609285D01*
X80589286Y-103609285D01*
X80660714Y-103644999D01*
X80696429Y-103680714D01*
X80732143Y-103752142D01*
X80732143Y-104037857D01*
X80589286Y-102966428D02*
X81089286Y-102966428D01*
X80303571Y-103144999D02*
X80839286Y-103323571D01*
X80839286Y-102859285D01*
X72017857Y-58089286D02*
X71767857Y-57732143D01*
X71589285Y-58089286D02*
X71589285Y-57339286D01*
X71875000Y-57339286D01*
X71946428Y-57375000D01*
X71982143Y-57410714D01*
X72017857Y-57482143D01*
X72017857Y-57589286D01*
X71982143Y-57660714D01*
X71946428Y-57696429D01*
X71875000Y-57732143D01*
X71589285Y-57732143D01*
X72303571Y-57410714D02*
X72339285Y-57375000D01*
X72410714Y-57339286D01*
X72589285Y-57339286D01*
X72660714Y-57375000D01*
X72696428Y-57410714D01*
X72732143Y-57482143D01*
X72732143Y-57553571D01*
X72696428Y-57660714D01*
X72267857Y-58089286D01*
X72732143Y-58089286D01*
X72982143Y-57339286D02*
X73446429Y-57339286D01*
X73196429Y-57625000D01*
X73303571Y-57625000D01*
X73375000Y-57660714D01*
X73410714Y-57696429D01*
X73446429Y-57767857D01*
X73446429Y-57946429D01*
X73410714Y-58017857D01*
X73375000Y-58053571D01*
X73303571Y-58089286D01*
X73089286Y-58089286D01*
X73017857Y-58053571D01*
X72982143Y-58017857D01*
X72017857Y-62589286D02*
X71767857Y-62232143D01*
X71589285Y-62589286D02*
X71589285Y-61839286D01*
X71875000Y-61839286D01*
X71946428Y-61875000D01*
X71982143Y-61910714D01*
X72017857Y-61982143D01*
X72017857Y-62089286D01*
X71982143Y-62160714D01*
X71946428Y-62196429D01*
X71875000Y-62232143D01*
X71589285Y-62232143D01*
X72303571Y-61910714D02*
X72339285Y-61875000D01*
X72410714Y-61839286D01*
X72589285Y-61839286D01*
X72660714Y-61875000D01*
X72696428Y-61910714D01*
X72732143Y-61982143D01*
X72732143Y-62053571D01*
X72696428Y-62160714D01*
X72267857Y-62589286D01*
X72732143Y-62589286D01*
X73375000Y-62089286D02*
X73375000Y-62589286D01*
X73196429Y-61803571D02*
X73017857Y-62339286D01*
X73482143Y-62339286D01*
X72017857Y-83339286D02*
X71767857Y-82982143D01*
X71589285Y-83339286D02*
X71589285Y-82589286D01*
X71875000Y-82589286D01*
X71946428Y-82625000D01*
X71982143Y-82660714D01*
X72017857Y-82732143D01*
X72017857Y-82839286D01*
X71982143Y-82910714D01*
X71946428Y-82946429D01*
X71875000Y-82982143D01*
X71589285Y-82982143D01*
X72303571Y-82660714D02*
X72339285Y-82625000D01*
X72410714Y-82589286D01*
X72589285Y-82589286D01*
X72660714Y-82625000D01*
X72696428Y-82660714D01*
X72732143Y-82732143D01*
X72732143Y-82803571D01*
X72696428Y-82910714D01*
X72267857Y-83339286D01*
X72732143Y-83339286D01*
X73410714Y-82589286D02*
X73053571Y-82589286D01*
X73017857Y-82946429D01*
X73053571Y-82910714D01*
X73125000Y-82875000D01*
X73303571Y-82875000D01*
X73375000Y-82910714D01*
X73410714Y-82946429D01*
X73446429Y-83017857D01*
X73446429Y-83196429D01*
X73410714Y-83267857D01*
X73375000Y-83303571D01*
X73303571Y-83339286D01*
X73125000Y-83339286D01*
X73053571Y-83303571D01*
X73017857Y-83267857D01*
X80639286Y-93482143D02*
X80282143Y-93732143D01*
X80639286Y-93910715D02*
X79889286Y-93910715D01*
X79889286Y-93625000D01*
X79925000Y-93553572D01*
X79960714Y-93517857D01*
X80032143Y-93482143D01*
X80139286Y-93482143D01*
X80210714Y-93517857D01*
X80246429Y-93553572D01*
X80282143Y-93625000D01*
X80282143Y-93910715D01*
X80639286Y-92767857D02*
X80639286Y-93196429D01*
X80639286Y-92982143D02*
X79889286Y-92982143D01*
X79996429Y-93053572D01*
X80067857Y-93125000D01*
X80103571Y-93196429D01*
X79960714Y-92482143D02*
X79925000Y-92446429D01*
X79889286Y-92375000D01*
X79889286Y-92196429D01*
X79925000Y-92125000D01*
X79960714Y-92089286D01*
X80032143Y-92053571D01*
X80103571Y-92053571D01*
X80210714Y-92089286D01*
X80639286Y-92517857D01*
X80639286Y-92053571D01*
X72839286Y-104716428D02*
X72839286Y-104287857D01*
X73589286Y-104502143D02*
X72839286Y-104502143D01*
X73589286Y-104037857D02*
X72839286Y-104037857D01*
X72839286Y-103752142D01*
X72875000Y-103680714D01*
X72910714Y-103644999D01*
X72982143Y-103609285D01*
X73089286Y-103609285D01*
X73160714Y-103644999D01*
X73196429Y-103680714D01*
X73232143Y-103752142D01*
X73232143Y-104037857D01*
X72839286Y-102930714D02*
X72839286Y-103287857D01*
X73196429Y-103323571D01*
X73160714Y-103287857D01*
X73125000Y-103216428D01*
X73125000Y-103037857D01*
X73160714Y-102966428D01*
X73196429Y-102930714D01*
X73267857Y-102894999D01*
X73446429Y-102894999D01*
X73517857Y-102930714D01*
X73553571Y-102966428D01*
X73589286Y-103037857D01*
X73589286Y-103216428D01*
X73553571Y-103287857D01*
X73517857Y-103323571D01*
M02*
