G04 #@! TF.FileFunction,Legend,Bot*
%FSLAX46Y46*%
G04 Gerber Fmt 4.6, Leading zero omitted, Abs format (unit mm)*
G04 Created by KiCad (PCBNEW 4.0.7) date 09/10/18 12:16:13*
%MOMM*%
%LPD*%
G01*
G04 APERTURE LIST*
%ADD10C,0.100000*%
%ADD11C,0.150000*%
%ADD12C,0.120000*%
%ADD13C,0.127000*%
G04 APERTURE END LIST*
D10*
D11*
X94575000Y-51575000D02*
X94525000Y-51575000D01*
X94575000Y-47425000D02*
X94430000Y-47425000D01*
X89425000Y-47425000D02*
X89570000Y-47425000D01*
X89425000Y-51575000D02*
X89570000Y-51575000D01*
X94575000Y-51575000D02*
X94575000Y-47425000D01*
X89425000Y-51575000D02*
X89425000Y-47425000D01*
X94525000Y-51575000D02*
X94525000Y-52975000D01*
D12*
X85000000Y-79818555D02*
X84328249Y-79146804D01*
X92318555Y-72500000D02*
X91576093Y-71757538D01*
X85000000Y-65181445D02*
X85742462Y-65923907D01*
X77681445Y-72500000D02*
X78423907Y-73242462D01*
X85000000Y-79818555D02*
X85742462Y-79076093D01*
X77681445Y-72500000D02*
X78423907Y-71757538D01*
X85000000Y-65181445D02*
X84257538Y-65923907D01*
X92318555Y-72500000D02*
X91576093Y-73242462D01*
X84328249Y-79146804D02*
X83426687Y-80048365D01*
X89150000Y-101150000D02*
X89150000Y-101850000D01*
X90350000Y-101850000D02*
X90350000Y-101150000D01*
X91650000Y-55100000D02*
X92350000Y-55100000D01*
X92350000Y-53900000D02*
X91650000Y-53900000D01*
X93400000Y-45100000D02*
X94100000Y-45100000D01*
X94100000Y-43900000D02*
X93400000Y-43900000D01*
X75850000Y-93350000D02*
X75850000Y-92650000D01*
X74650000Y-92650000D02*
X74650000Y-93350000D01*
X90850000Y-43900000D02*
X90150000Y-43900000D01*
X90150000Y-45100000D02*
X90850000Y-45100000D01*
X86500000Y-50180000D02*
X87500000Y-50180000D01*
X87500000Y-48820000D02*
X86500000Y-48820000D01*
X96500000Y-48430000D02*
X97500000Y-48430000D01*
X97500000Y-47070000D02*
X96500000Y-47070000D01*
X86500000Y-48430000D02*
X87500000Y-48430000D01*
X87500000Y-47070000D02*
X86500000Y-47070000D01*
X86500000Y-51930000D02*
X87500000Y-51930000D01*
X87500000Y-50570000D02*
X86500000Y-50570000D01*
X90820000Y-101000000D02*
X90820000Y-102000000D01*
X92180000Y-102000000D02*
X92180000Y-101000000D01*
X87500000Y-45320000D02*
X86500000Y-45320000D01*
X86500000Y-46680000D02*
X87500000Y-46680000D01*
X86500000Y-53680000D02*
X87500000Y-53680000D01*
X87500000Y-52320000D02*
X86500000Y-52320000D01*
X81250000Y-49930000D02*
X82250000Y-49930000D01*
X82250000Y-48570000D02*
X81250000Y-48570000D01*
X96500000Y-50180000D02*
X97500000Y-50180000D01*
X97500000Y-48820000D02*
X96500000Y-48820000D01*
X96500000Y-51930000D02*
X97500000Y-51930000D01*
X97500000Y-50570000D02*
X96500000Y-50570000D01*
X94320000Y-101000000D02*
X94320000Y-102000000D01*
X95680000Y-102000000D02*
X95680000Y-101000000D01*
X79000000Y-95820000D02*
X78000000Y-95820000D01*
X78000000Y-97180000D02*
X79000000Y-97180000D01*
X92570000Y-101000000D02*
X92570000Y-102000000D01*
X93930000Y-102000000D02*
X93930000Y-101000000D01*
X80110000Y-92100000D02*
X80110000Y-93900000D01*
X76890000Y-93900000D02*
X76890000Y-91450000D01*
D13*
X102000000Y-67500000D02*
X102250000Y-67500000D01*
X102000000Y-47500000D02*
X102250000Y-47500000D01*
X107250000Y-50250000D02*
X106750000Y-50000000D01*
X106750000Y-50500000D02*
X107250000Y-50250000D01*
X106750000Y-50000000D02*
X106750000Y-50500000D01*
X106500000Y-47500000D02*
X106500000Y-67500000D01*
X107500000Y-47500000D02*
X107500000Y-67500000D01*
X107500000Y-67500000D02*
X105500000Y-67500000D01*
X107500000Y-47500000D02*
X105500000Y-47500000D01*
X102000000Y-50000000D02*
X102000000Y-47500000D01*
X102000000Y-65000000D02*
X102000000Y-67500000D01*
X102000000Y-97500000D02*
X102250000Y-97500000D01*
X102000000Y-77500000D02*
X102250000Y-77500000D01*
X107250000Y-80250000D02*
X106750000Y-80000000D01*
X106750000Y-80500000D02*
X107250000Y-80250000D01*
X106750000Y-80000000D02*
X106750000Y-80500000D01*
X106500000Y-77500000D02*
X106500000Y-97500000D01*
X107500000Y-77500000D02*
X107500000Y-97500000D01*
X107500000Y-97500000D02*
X105500000Y-97500000D01*
X107500000Y-77500000D02*
X105500000Y-77500000D01*
X102000000Y-80000000D02*
X102000000Y-77500000D01*
X102000000Y-95000000D02*
X102000000Y-97500000D01*
D11*
X88339286Y-48928571D02*
X88946429Y-48928571D01*
X89017857Y-48964286D01*
X89053571Y-49000000D01*
X89089286Y-49071429D01*
X89089286Y-49214286D01*
X89053571Y-49285714D01*
X89017857Y-49321429D01*
X88946429Y-49357143D01*
X88339286Y-49357143D01*
X88410714Y-49678571D02*
X88375000Y-49714285D01*
X88339286Y-49785714D01*
X88339286Y-49964285D01*
X88375000Y-50035714D01*
X88410714Y-50071428D01*
X88482143Y-50107143D01*
X88553571Y-50107143D01*
X88660714Y-50071428D01*
X89089286Y-49642857D01*
X89089286Y-50107143D01*
X90381589Y-77073466D02*
X90810904Y-77502781D01*
X90836157Y-77578542D01*
X90836157Y-77629050D01*
X90810903Y-77704812D01*
X90709888Y-77805827D01*
X90634126Y-77831080D01*
X90583618Y-77831081D01*
X90507857Y-77805827D01*
X90078542Y-77376512D01*
X90078542Y-78437172D02*
X90381589Y-78134126D01*
X90230066Y-78285649D02*
X89699735Y-77755319D01*
X89826005Y-77780573D01*
X89927019Y-77780573D01*
X90002781Y-77755318D01*
X90017857Y-98517857D02*
X90053571Y-98482143D01*
X90089286Y-98375000D01*
X90089286Y-98303571D01*
X90053571Y-98196428D01*
X89982143Y-98125000D01*
X89910714Y-98089285D01*
X89767857Y-98053571D01*
X89660714Y-98053571D01*
X89517857Y-98089285D01*
X89446429Y-98125000D01*
X89375000Y-98196428D01*
X89339286Y-98303571D01*
X89339286Y-98375000D01*
X89375000Y-98482143D01*
X89410714Y-98517857D01*
X90089286Y-99232143D02*
X90089286Y-98803571D01*
X90089286Y-99017857D02*
X89339286Y-99017857D01*
X89446429Y-98946428D01*
X89517857Y-98875000D01*
X89553571Y-98803571D01*
X89339286Y-99696429D02*
X89339286Y-99767857D01*
X89375000Y-99839286D01*
X89410714Y-99875000D01*
X89482143Y-99910714D01*
X89625000Y-99946429D01*
X89803571Y-99946429D01*
X89946429Y-99910714D01*
X90017857Y-99875000D01*
X90053571Y-99839286D01*
X90089286Y-99767857D01*
X90089286Y-99696429D01*
X90053571Y-99625000D01*
X90017857Y-99589286D01*
X89946429Y-99553571D01*
X89803571Y-99517857D01*
X89625000Y-99517857D01*
X89482143Y-99553571D01*
X89410714Y-99589286D01*
X89375000Y-99625000D01*
X89339286Y-99696429D01*
X92482143Y-56267857D02*
X92517857Y-56303571D01*
X92625000Y-56339286D01*
X92696429Y-56339286D01*
X92803572Y-56303571D01*
X92875000Y-56232143D01*
X92910715Y-56160714D01*
X92946429Y-56017857D01*
X92946429Y-55910714D01*
X92910715Y-55767857D01*
X92875000Y-55696429D01*
X92803572Y-55625000D01*
X92696429Y-55589286D01*
X92625000Y-55589286D01*
X92517857Y-55625000D01*
X92482143Y-55660714D01*
X91767857Y-56339286D02*
X92196429Y-56339286D01*
X91982143Y-56339286D02*
X91982143Y-55589286D01*
X92053572Y-55696429D01*
X92125000Y-55767857D01*
X92196429Y-55803571D01*
X91053571Y-56339286D02*
X91482143Y-56339286D01*
X91267857Y-56339286D02*
X91267857Y-55589286D01*
X91339286Y-55696429D01*
X91410714Y-55767857D01*
X91482143Y-55803571D01*
X94232143Y-43517857D02*
X94267857Y-43553571D01*
X94375000Y-43589286D01*
X94446429Y-43589286D01*
X94553572Y-43553571D01*
X94625000Y-43482143D01*
X94660715Y-43410714D01*
X94696429Y-43267857D01*
X94696429Y-43160714D01*
X94660715Y-43017857D01*
X94625000Y-42946429D01*
X94553572Y-42875000D01*
X94446429Y-42839286D01*
X94375000Y-42839286D01*
X94267857Y-42875000D01*
X94232143Y-42910714D01*
X93517857Y-43589286D02*
X93946429Y-43589286D01*
X93732143Y-43589286D02*
X93732143Y-42839286D01*
X93803572Y-42946429D01*
X93875000Y-43017857D01*
X93946429Y-43053571D01*
X93232143Y-42910714D02*
X93196429Y-42875000D01*
X93125000Y-42839286D01*
X92946429Y-42839286D01*
X92875000Y-42875000D01*
X92839286Y-42910714D01*
X92803571Y-42982143D01*
X92803571Y-43053571D01*
X92839286Y-43160714D01*
X93267857Y-43589286D01*
X92803571Y-43589286D01*
X74267857Y-92517857D02*
X74303571Y-92482143D01*
X74339286Y-92375000D01*
X74339286Y-92303571D01*
X74303571Y-92196428D01*
X74232143Y-92125000D01*
X74160714Y-92089285D01*
X74017857Y-92053571D01*
X73910714Y-92053571D01*
X73767857Y-92089285D01*
X73696429Y-92125000D01*
X73625000Y-92196428D01*
X73589286Y-92303571D01*
X73589286Y-92375000D01*
X73625000Y-92482143D01*
X73660714Y-92517857D01*
X74339286Y-93232143D02*
X74339286Y-92803571D01*
X74339286Y-93017857D02*
X73589286Y-93017857D01*
X73696429Y-92946428D01*
X73767857Y-92875000D01*
X73803571Y-92803571D01*
X73589286Y-93482143D02*
X73589286Y-93946429D01*
X73875000Y-93696429D01*
X73875000Y-93803571D01*
X73910714Y-93875000D01*
X73946429Y-93910714D01*
X74017857Y-93946429D01*
X74196429Y-93946429D01*
X74267857Y-93910714D01*
X74303571Y-93875000D01*
X74339286Y-93803571D01*
X74339286Y-93589286D01*
X74303571Y-93517857D01*
X74267857Y-93482143D01*
X90982143Y-43517857D02*
X91017857Y-43553571D01*
X91125000Y-43589286D01*
X91196429Y-43589286D01*
X91303572Y-43553571D01*
X91375000Y-43482143D01*
X91410715Y-43410714D01*
X91446429Y-43267857D01*
X91446429Y-43160714D01*
X91410715Y-43017857D01*
X91375000Y-42946429D01*
X91303572Y-42875000D01*
X91196429Y-42839286D01*
X91125000Y-42839286D01*
X91017857Y-42875000D01*
X90982143Y-42910714D01*
X90267857Y-43589286D02*
X90696429Y-43589286D01*
X90482143Y-43589286D02*
X90482143Y-42839286D01*
X90553572Y-42946429D01*
X90625000Y-43017857D01*
X90696429Y-43053571D01*
X89625000Y-43089286D02*
X89625000Y-43589286D01*
X89803571Y-42803571D02*
X89982143Y-43339286D01*
X89517857Y-43339286D01*
X85375000Y-49089286D02*
X85375000Y-49625000D01*
X85410714Y-49732143D01*
X85482143Y-49803571D01*
X85589286Y-49839286D01*
X85660714Y-49839286D01*
X85017857Y-49839286D02*
X85017857Y-49089286D01*
X84732142Y-49089286D01*
X84660714Y-49125000D01*
X84624999Y-49160714D01*
X84589285Y-49232143D01*
X84589285Y-49339286D01*
X84624999Y-49410714D01*
X84660714Y-49446429D01*
X84732142Y-49482143D01*
X85017857Y-49482143D01*
X83874999Y-49839286D02*
X84303571Y-49839286D01*
X84089285Y-49839286D02*
X84089285Y-49089286D01*
X84160714Y-49196429D01*
X84232142Y-49267857D01*
X84303571Y-49303571D01*
X100125000Y-47339286D02*
X100125000Y-47875000D01*
X100160714Y-47982143D01*
X100232143Y-48053571D01*
X100339286Y-48089286D01*
X100410714Y-48089286D01*
X99767857Y-48089286D02*
X99767857Y-47339286D01*
X99482142Y-47339286D01*
X99410714Y-47375000D01*
X99374999Y-47410714D01*
X99339285Y-47482143D01*
X99339285Y-47589286D01*
X99374999Y-47660714D01*
X99410714Y-47696429D01*
X99482142Y-47732143D01*
X99767857Y-47732143D01*
X99053571Y-47410714D02*
X99017857Y-47375000D01*
X98946428Y-47339286D01*
X98767857Y-47339286D01*
X98696428Y-47375000D01*
X98660714Y-47410714D01*
X98624999Y-47482143D01*
X98624999Y-47553571D01*
X98660714Y-47660714D01*
X99089285Y-48089286D01*
X98624999Y-48089286D01*
X84875000Y-48089286D02*
X85125000Y-47732143D01*
X85303572Y-48089286D02*
X85303572Y-47339286D01*
X85017857Y-47339286D01*
X84946429Y-47375000D01*
X84910714Y-47410714D01*
X84875000Y-47482143D01*
X84875000Y-47589286D01*
X84910714Y-47660714D01*
X84946429Y-47696429D01*
X85017857Y-47732143D01*
X85303572Y-47732143D01*
X84160714Y-48089286D02*
X84589286Y-48089286D01*
X84375000Y-48089286D02*
X84375000Y-47339286D01*
X84446429Y-47446429D01*
X84517857Y-47517857D01*
X84589286Y-47553571D01*
X84875000Y-51589286D02*
X85125000Y-51232143D01*
X85303572Y-51589286D02*
X85303572Y-50839286D01*
X85017857Y-50839286D01*
X84946429Y-50875000D01*
X84910714Y-50910714D01*
X84875000Y-50982143D01*
X84875000Y-51089286D01*
X84910714Y-51160714D01*
X84946429Y-51196429D01*
X85017857Y-51232143D01*
X85303572Y-51232143D01*
X84589286Y-50910714D02*
X84553572Y-50875000D01*
X84482143Y-50839286D01*
X84303572Y-50839286D01*
X84232143Y-50875000D01*
X84196429Y-50910714D01*
X84160714Y-50982143D01*
X84160714Y-51053571D01*
X84196429Y-51160714D01*
X84625000Y-51589286D01*
X84160714Y-51589286D01*
X91839286Y-98875000D02*
X91482143Y-98625000D01*
X91839286Y-98446428D02*
X91089286Y-98446428D01*
X91089286Y-98732143D01*
X91125000Y-98803571D01*
X91160714Y-98839286D01*
X91232143Y-98875000D01*
X91339286Y-98875000D01*
X91410714Y-98839286D01*
X91446429Y-98803571D01*
X91482143Y-98732143D01*
X91482143Y-98446428D01*
X91089286Y-99125000D02*
X91089286Y-99589286D01*
X91375000Y-99339286D01*
X91375000Y-99446428D01*
X91410714Y-99517857D01*
X91446429Y-99553571D01*
X91517857Y-99589286D01*
X91696429Y-99589286D01*
X91767857Y-99553571D01*
X91803571Y-99517857D01*
X91839286Y-99446428D01*
X91839286Y-99232143D01*
X91803571Y-99160714D01*
X91767857Y-99125000D01*
X84875000Y-46339286D02*
X85125000Y-45982143D01*
X85303572Y-46339286D02*
X85303572Y-45589286D01*
X85017857Y-45589286D01*
X84946429Y-45625000D01*
X84910714Y-45660714D01*
X84875000Y-45732143D01*
X84875000Y-45839286D01*
X84910714Y-45910714D01*
X84946429Y-45946429D01*
X85017857Y-45982143D01*
X85303572Y-45982143D01*
X84232143Y-45839286D02*
X84232143Y-46339286D01*
X84410714Y-45553571D02*
X84589286Y-46089286D01*
X84125000Y-46089286D01*
X84875000Y-53339286D02*
X85125000Y-52982143D01*
X85303572Y-53339286D02*
X85303572Y-52589286D01*
X85017857Y-52589286D01*
X84946429Y-52625000D01*
X84910714Y-52660714D01*
X84875000Y-52732143D01*
X84875000Y-52839286D01*
X84910714Y-52910714D01*
X84946429Y-52946429D01*
X85017857Y-52982143D01*
X85303572Y-52982143D01*
X84196429Y-52589286D02*
X84553572Y-52589286D01*
X84589286Y-52946429D01*
X84553572Y-52910714D01*
X84482143Y-52875000D01*
X84303572Y-52875000D01*
X84232143Y-52910714D01*
X84196429Y-52946429D01*
X84160714Y-53017857D01*
X84160714Y-53196429D01*
X84196429Y-53267857D01*
X84232143Y-53303571D01*
X84303572Y-53339286D01*
X84482143Y-53339286D01*
X84553572Y-53303571D01*
X84589286Y-53267857D01*
X81875000Y-48139286D02*
X82125000Y-47782143D01*
X82303572Y-48139286D02*
X82303572Y-47389286D01*
X82017857Y-47389286D01*
X81946429Y-47425000D01*
X81910714Y-47460714D01*
X81875000Y-47532143D01*
X81875000Y-47639286D01*
X81910714Y-47710714D01*
X81946429Y-47746429D01*
X82017857Y-47782143D01*
X82303572Y-47782143D01*
X81232143Y-47389286D02*
X81375000Y-47389286D01*
X81446429Y-47425000D01*
X81482143Y-47460714D01*
X81553572Y-47567857D01*
X81589286Y-47710714D01*
X81589286Y-47996429D01*
X81553572Y-48067857D01*
X81517857Y-48103571D01*
X81446429Y-48139286D01*
X81303572Y-48139286D01*
X81232143Y-48103571D01*
X81196429Y-48067857D01*
X81160714Y-47996429D01*
X81160714Y-47817857D01*
X81196429Y-47746429D01*
X81232143Y-47710714D01*
X81303572Y-47675000D01*
X81446429Y-47675000D01*
X81517857Y-47710714D01*
X81553572Y-47746429D01*
X81589286Y-47817857D01*
X99375000Y-49839286D02*
X99625000Y-49482143D01*
X99803572Y-49839286D02*
X99803572Y-49089286D01*
X99517857Y-49089286D01*
X99446429Y-49125000D01*
X99410714Y-49160714D01*
X99375000Y-49232143D01*
X99375000Y-49339286D01*
X99410714Y-49410714D01*
X99446429Y-49446429D01*
X99517857Y-49482143D01*
X99803572Y-49482143D01*
X99125000Y-49089286D02*
X98625000Y-49089286D01*
X98946429Y-49839286D01*
X99375000Y-51589286D02*
X99625000Y-51232143D01*
X99803572Y-51589286D02*
X99803572Y-50839286D01*
X99517857Y-50839286D01*
X99446429Y-50875000D01*
X99410714Y-50910714D01*
X99375000Y-50982143D01*
X99375000Y-51089286D01*
X99410714Y-51160714D01*
X99446429Y-51196429D01*
X99517857Y-51232143D01*
X99803572Y-51232143D01*
X98946429Y-51160714D02*
X99017857Y-51125000D01*
X99053572Y-51089286D01*
X99089286Y-51017857D01*
X99089286Y-50982143D01*
X99053572Y-50910714D01*
X99017857Y-50875000D01*
X98946429Y-50839286D01*
X98803572Y-50839286D01*
X98732143Y-50875000D01*
X98696429Y-50910714D01*
X98660714Y-50982143D01*
X98660714Y-51017857D01*
X98696429Y-51089286D01*
X98732143Y-51125000D01*
X98803572Y-51160714D01*
X98946429Y-51160714D01*
X99017857Y-51196429D01*
X99053572Y-51232143D01*
X99089286Y-51303571D01*
X99089286Y-51446429D01*
X99053572Y-51517857D01*
X99017857Y-51553571D01*
X98946429Y-51589286D01*
X98803572Y-51589286D01*
X98732143Y-51553571D01*
X98696429Y-51517857D01*
X98660714Y-51446429D01*
X98660714Y-51303571D01*
X98696429Y-51232143D01*
X98732143Y-51196429D01*
X98803572Y-51160714D01*
X95339286Y-98875000D02*
X94982143Y-98625000D01*
X95339286Y-98446428D02*
X94589286Y-98446428D01*
X94589286Y-98732143D01*
X94625000Y-98803571D01*
X94660714Y-98839286D01*
X94732143Y-98875000D01*
X94839286Y-98875000D01*
X94910714Y-98839286D01*
X94946429Y-98803571D01*
X94982143Y-98732143D01*
X94982143Y-98446428D01*
X95339286Y-99232143D02*
X95339286Y-99375000D01*
X95303571Y-99446428D01*
X95267857Y-99482143D01*
X95160714Y-99553571D01*
X95017857Y-99589286D01*
X94732143Y-99589286D01*
X94660714Y-99553571D01*
X94625000Y-99517857D01*
X94589286Y-99446428D01*
X94589286Y-99303571D01*
X94625000Y-99232143D01*
X94660714Y-99196428D01*
X94732143Y-99160714D01*
X94910714Y-99160714D01*
X94982143Y-99196428D01*
X95017857Y-99232143D01*
X95053571Y-99303571D01*
X95053571Y-99446428D01*
X95017857Y-99517857D01*
X94982143Y-99553571D01*
X94910714Y-99589286D01*
X78982143Y-98289286D02*
X79232143Y-97932143D01*
X79410715Y-98289286D02*
X79410715Y-97539286D01*
X79125000Y-97539286D01*
X79053572Y-97575000D01*
X79017857Y-97610714D01*
X78982143Y-97682143D01*
X78982143Y-97789286D01*
X79017857Y-97860714D01*
X79053572Y-97896429D01*
X79125000Y-97932143D01*
X79410715Y-97932143D01*
X78267857Y-98289286D02*
X78696429Y-98289286D01*
X78482143Y-98289286D02*
X78482143Y-97539286D01*
X78553572Y-97646429D01*
X78625000Y-97717857D01*
X78696429Y-97753571D01*
X77803571Y-97539286D02*
X77732143Y-97539286D01*
X77660714Y-97575000D01*
X77625000Y-97610714D01*
X77589286Y-97682143D01*
X77553571Y-97825000D01*
X77553571Y-98003571D01*
X77589286Y-98146429D01*
X77625000Y-98217857D01*
X77660714Y-98253571D01*
X77732143Y-98289286D01*
X77803571Y-98289286D01*
X77875000Y-98253571D01*
X77910714Y-98217857D01*
X77946429Y-98146429D01*
X77982143Y-98003571D01*
X77982143Y-97825000D01*
X77946429Y-97682143D01*
X77910714Y-97610714D01*
X77875000Y-97575000D01*
X77803571Y-97539286D01*
X93589286Y-98517857D02*
X93232143Y-98267857D01*
X93589286Y-98089285D02*
X92839286Y-98089285D01*
X92839286Y-98375000D01*
X92875000Y-98446428D01*
X92910714Y-98482143D01*
X92982143Y-98517857D01*
X93089286Y-98517857D01*
X93160714Y-98482143D01*
X93196429Y-98446428D01*
X93232143Y-98375000D01*
X93232143Y-98089285D01*
X93589286Y-99232143D02*
X93589286Y-98803571D01*
X93589286Y-99017857D02*
X92839286Y-99017857D01*
X92946429Y-98946428D01*
X93017857Y-98875000D01*
X93053571Y-98803571D01*
X93589286Y-99946429D02*
X93589286Y-99517857D01*
X93589286Y-99732143D02*
X92839286Y-99732143D01*
X92946429Y-99660714D01*
X93017857Y-99589286D01*
X93053571Y-99517857D01*
X79071429Y-89839286D02*
X79071429Y-90446429D01*
X79035714Y-90517857D01*
X79000000Y-90553571D01*
X78928571Y-90589286D01*
X78785714Y-90589286D01*
X78714286Y-90553571D01*
X78678571Y-90517857D01*
X78642857Y-90446429D01*
X78642857Y-89839286D01*
X78357143Y-89839286D02*
X77892857Y-89839286D01*
X78142857Y-90125000D01*
X78035715Y-90125000D01*
X77964286Y-90160714D01*
X77928572Y-90196429D01*
X77892857Y-90267857D01*
X77892857Y-90446429D01*
X77928572Y-90517857D01*
X77964286Y-90553571D01*
X78035715Y-90589286D01*
X78250000Y-90589286D01*
X78321429Y-90553571D01*
X78357143Y-90517857D01*
X100839286Y-48000000D02*
X101375000Y-48000000D01*
X101482143Y-47964286D01*
X101553571Y-47892857D01*
X101589286Y-47785714D01*
X101589286Y-47714286D01*
X100839286Y-48285715D02*
X100839286Y-48785715D01*
X101589286Y-48464286D01*
X100839286Y-78000000D02*
X101375000Y-78000000D01*
X101482143Y-77964286D01*
X101553571Y-77892857D01*
X101589286Y-77785714D01*
X101589286Y-77714286D01*
X101160714Y-78464286D02*
X101125000Y-78392858D01*
X101089286Y-78357143D01*
X101017857Y-78321429D01*
X100982143Y-78321429D01*
X100910714Y-78357143D01*
X100875000Y-78392858D01*
X100839286Y-78464286D01*
X100839286Y-78607143D01*
X100875000Y-78678572D01*
X100910714Y-78714286D01*
X100982143Y-78750001D01*
X101017857Y-78750001D01*
X101089286Y-78714286D01*
X101125000Y-78678572D01*
X101160714Y-78607143D01*
X101160714Y-78464286D01*
X101196429Y-78392858D01*
X101232143Y-78357143D01*
X101303571Y-78321429D01*
X101446429Y-78321429D01*
X101517857Y-78357143D01*
X101553571Y-78392858D01*
X101589286Y-78464286D01*
X101589286Y-78607143D01*
X101553571Y-78678572D01*
X101517857Y-78714286D01*
X101446429Y-78750001D01*
X101303571Y-78750001D01*
X101232143Y-78714286D01*
X101196429Y-78678572D01*
X101160714Y-78607143D01*
M02*
